<svg xmlns="http://www.w3.org/2000/svg" xmlns:xlink="http://www.w3.org/1999/xlink" width="792" viewBox="0 0 792 612" height="612" version="1.0"><defs><clipPath id="a"><path d="M 285 59 L 307.824219 59 L 307.824219 81 L 285 81 Z M 285 59"/></clipPath><clipPath id="b"><path d="M 288.738281 76.5 C 291.453125 78.402344 294.15625 79.625 296.882812 80.167969 C 300.128906 80.167969 302.574219 79.21875 304.203125 77.316406 C 306.363281 74.613281 307.3125 72.304688 307.054688 70.402344 C 307.054688 67.144531 305.96875 64.714844 303.796875 63.074219 C 301.894531 60.640625 299.453125 59.554688 296.476562 59.824219 C 293.492188 59.28125 290.777344 60.097656 288.332031 62.257812 C 286.433594 64.160156 285.480469 66.601562 285.480469 69.589844 C 285.480469 71.761719 286.566406 74.070312 288.738281 76.5"/></clipPath><clipPath id="c"><path d="M 307.324219 80.167969 L 285.480469 80.777344 L 285.480469 59.28125 L 307.3125 58.671875 Z M 307.324219 80.167969"/></clipPath><clipPath id="e"><path d="M 66 0 L 773 0 L 773 467 L 66 467 Z M 66 0"/></clipPath><clipPath id="f"><path d="M 66.601562 425.445312 C 74.902344 434.460938 83.183594 440.761719 91.417969 444.371094 C 92.695312 445.128906 95.128906 445.875 98.738281 446.601562 C 99.359375 446.328125 99.96875 446.058594 100.570312 445.785156 C 104.175781 442.324219 108.441406 438.871094 113.386719 435.410156 C 125.320312 425.648438 136.980469 418.316406 148.371094 413.441406 C 156.234375 409.367188 162.476562 407.058594 167.082031 406.527344 C 167.082031 405.972656 167.363281 405.578125 167.90625 405.304688 C 170.070312 401.777344 173.871094 401.234375 179.289062 403.675781 L 179.707031 403.878906 C 180 403.550781 180.273438 403.210938 180.519531 402.863281 C 180.238281 397.976562 180.101562 393.097656 180.101562 388.210938 C 182.015625 387.667969 184.039062 387.941406 186.210938 389.027344 C 190.949219 389.773438 195.824219 391.875 200.859375 395.328125 L 203.300781 391.875 C 204.117188 391.332031 204.796875 390.925781 205.339844 390.65625 C 207.5 389.296875 209.398438 388.074219 211.027344 386.988281 C 212.25 386.253906 213.472656 385.574219 214.691406 384.953125 C 209.253906 378.234375 200.167969 369.828125 187.433594 359.722656 C 164.648438 343.453125 151.765625 328.125 148.78125 313.746094 C 146.335938 298.28125 146.199219 289.195312 148.371094 286.480469 C 170.339844 303.574219 181.324219 305.746094 181.324219 292.984375 C 181.878906 279.160156 177.261719 268.175781 167.5 260.03125 C 160.714844 251.351562 158.949219 243.476562 162.207031 236.429688 C 166.550781 249.453125 176.855469 259.621094 193.132812 266.953125 C 209.398438 274 222.292969 277.804688 231.773438 278.347656 C 247.238281 279.691406 255.925781 276.988281 257.824219 270.199219 C 259.714844 266.136719 259.308594 257.585938 256.601562 244.5625 C 251.171875 215 260.257812 195.734375 283.863281 186.785156 C 280.335938 188.414062 277.347656 192.339844 274.90625 198.585938 C 272.460938 204.546875 271.242188 211.199219 271.242188 218.519531 C 271.242188 220.148438 272.460938 226.53125 274.90625 237.652344 C 276.804688 247.6875 277.621094 253.660156 277.347656 255.550781 C 277.621094 260.707031 276.535156 266.535156 274.101562 273.050781 C 264.328125 300.179688 259.441406 316.054688 259.441406 320.660156 C 259.984375 337.210938 267.179688 352.539062 281.003906 366.648438 C 290.777344 375.867188 304.203125 385.632812 321.285156 395.9375 C 317.765625 390.246094 318.582031 386.039062 323.726562 383.324219 C 328.070312 380.078125 332.550781 378.570312 337.164062 378.855469 C 334.710938 384.816406 335.390625 391.875 339.191406 400.011719 C 343.535156 407.613281 349.902344 413.03125 358.316406 416.292969 C 358.851562 416.292969 369.980469 409.097656 391.675781 394.714844 C 413.914062 379.261719 425.035156 369.894531 425.035156 366.648438 C 425.578125 363.117188 425.578125 357.425781 425.035156 349.554688 C 420.972656 330.296875 412.285156 317.535156 398.996094 311.300781 C 424.21875 319.4375 437.792969 330.828125 439.683594 345.480469 C 442.941406 360.945312 444.570312 371.117188 444.570312 376.003906 C 444.570312 380.609375 444.164062 385.632812 443.347656 391.0625 C 452.839844 379.65625 457.453125 371.386719 457.183594 366.242188 C 457.453125 360.265625 458.8125 355.664062 461.253906 352.402344 C 463.414062 348.601562 469.660156 340.195312 479.964844 327.175781 C 490.542969 313.339844 493.527344 294.070312 488.914062 269.386719 C 503.5625 301.132812 506.820312 322.015625 498.675781 332.0625 C 490.269531 341.824219 485.246094 350.640625 483.628906 358.5 C 482.542969 365.832031 481.050781 373.152344 479.148438 380.484375 C 475.621094 394.582031 473.867188 402.726562 473.867188 404.898438 C 473.597656 418.191406 480.914062 431.757812 495.835938 445.582031 C 518.074219 466.476562 555.234375 471.761719 607.3125 461.453125 C 597.277344 459.292969 590.085938 454.40625 585.753906 446.804688 C 583.308594 439.753906 582.085938 435.953125 582.085938 435.410156 L 582.496094 432.152344 C 600.128906 441.382812 617.753906 445.851562 635.386719 445.582031 C 653.824219 444.765625 666.574219 446.136719 673.632812 449.65625 C 680.679688 452.640625 689.773438 440.027344 700.894531 411.8125 C 710.382812 437.039062 719.195312 446.804688 727.328125 441.113281 C 736.015625 434.867188 742.386719 425.917969 746.457031 414.253906 C 751.074219 401.777344 753.914062 383.1875 755 358.5 C 766.117188 362.847656 771.546875 374.238281 771.277344 392.691406 C 776.707031 361.21875 768.4375 336.800781 746.457031 319.4375 C 744.828125 338.160156 741.84375 354.574219 737.511719 368.671875 C 733.167969 383.050781 725.441406 388.617188 714.308594 385.359375 C 703.472656 381.558594 691.527344 371.386719 678.507812 354.847656 C 685.023438 372.746094 690.984375 385.765625 696.414062 393.902344 C 702.386719 401.503906 692.613281 409.773438 667.117188 418.734375 C 667.933594 393.507812 660.070312 375.324219 643.519531 364.203125 C 647.050781 374.238281 648.542969 384.953125 648 396.34375 C 647.1875 412.082031 639.042969 420.894531 623.589844 422.796875 C 608.941406 425.242188 595.378906 424.019531 582.902344 419.132812 C 570.695312 413.710938 564.722656 404.085938 564.996094 390.246094 C 566.351562 386.445312 567.980469 381.832031 569.882812 376.410156 C 576.65625 367.191406 584.53125 359.859375 593.476562 354.441406 C 594.5625 353.625 594.972656 353.21875 594.699219 353.21875 C 594.15625 353.21875 593.207031 353.21875 591.847656 353.21875 C 591.578125 353.21875 591.171875 353.21875 590.628906 353.21875 C 573.808594 355.109375 560.253906 359.046875 549.949219 365.019531 C 537.203125 372.609375 530.820312 384.273438 530.820312 400.011719 C 530.550781 401.910156 532.722656 406.921875 537.328125 415.070312 C 542.484375 423.203125 547.234375 429.585938 551.566406 434.1875 C 553.46875 435.003906 554.960938 435.953125 556.046875 437.039062 C 544.113281 439.484375 531.90625 437.449219 519.429688 430.941406 C 506.683594 422.523438 498.539062 404.75 495.019531 377.632812 C 518.34375 344.800781 527.835938 321.609375 523.503906 308.042969 C 521.875 292.589844 517.9375 281.863281 511.707031 275.902344 C 510.347656 274 508.71875 272.644531 506.820312 271.828125 C 500.859375 267.757812 489.183594 258.265625 471.832031 243.34375 C 454.46875 227.617188 451.210938 190.042969 462.058594 130.625 C 437.648438 186.515625 434.265625 224.628906 451.890625 244.972656 C 469.796875 265.050781 478.605469 277.9375 478.335938 283.628906 C 478.605469 287.160156 478.335938 290.554688 477.519531 293.800781 C 475.621094 299.773438 471.96875 305.464844 466.539062 310.894531 C 457.046875 321.203125 451.085938 329.617188 448.640625 336.125 C 449.445312 327.445312 444.707031 317.820312 434.402344 307.230469 C 423.824219 296.109375 411.347656 288.925781 396.960938 285.664062 C 380.964844 281.59375 367.128906 282.816406 355.46875 289.332031 C 344.890625 295.292969 339.734375 303.167969 340.003906 312.929688 C 340.003906 317.003906 340.140625 317.535156 340.410156 314.558594 C 342.855469 314.015625 346.382812 313.746094 350.988281 313.746094 C 357.503906 313.746094 361.292969 313.882812 362.378906 314.152344 C 374.042969 316.867188 382.71875 322.558594 388.417969 331.246094 C 391.949219 336.667969 393.847656 341.28125 394.121094 345.074219 C 393.847656 357.28125 387.738281 365.414062 375.816406 369.488281 C 365.5 373.289062 353.976562 373.289062 341.226562 369.488281 C 320.332031 363.523438 305.96875 355.933594 298.09375 346.703125 C 292.949219 340.195312 290.234375 331.914062 289.960938 321.878906 C 289.960938 318.089844 294.441406 299.09375 303.386719 264.917969 C 312.609375 229.914062 317.085938 209.84375 316.816406 204.683594 C 316.542969 184.34375 311.25 164.804688 300.945312 146.089844 C 297.144531 140.128906 292.40625 133.613281 286.703125 126.5625 C 280.742188 119.234375 271.917969 112.171875 260.257812 105.398438 C 248.605469 97.535156 230.019531 62.40625 204.523438 0.0117188 C 202.082031 49.65625 207.5 81.253906 220.789062 94.820312 C 234.636719 108.382812 242.769531 118.417969 245.210938 124.933594 C 248.1875 130.898438 249.679688 138.769531 249.679688 148.535156 C 250.765625 186.515625 244.398438 212.964844 230.5625 227.886719 C 222.960938 235.75 213.878906 239.6875 203.300781 239.6875 C 185.9375 239.960938 177.128906 235.613281 176.855469 226.664062 C 176.585938 224.492188 179.164062 220.148438 184.582031 213.644531 C 189.738281 207.128906 193.8125 202.386719 196.785156 199.398438 C 176.175781 206.449219 161.390625 213.78125 152.445312 221.371094 C 145.386719 227.34375 139.425781 234.394531 134.539062 242.539062 C 131.007812 248.773438 128.441406 255.695312 126.8125 263.289062 C 125.996094 266.003906 125.453125 268.976562 125.183594 272.238281 C 124.910156 275.222656 124.777344 278.480469 124.777344 282 C 124.777344 285.53125 125.183594 288.925781 125.996094 292.171875 C 127.625 299.773438 131.144531 308.179688 136.574219 317.398438 C 137.117188 317.671875 137.523438 318.351562 137.796875 319.4375 C 154.074219 343.035156 162.070312 355.664062 161.800781 357.28125 C 143.632812 345.074219 129.390625 336.53125 119.074219 331.644531 C 118.261719 330.828125 116.777344 330.027344 114.605469 329.210938 C 106.472656 325.136719 98.738281 322.421875 91.417969 321.066406 C 83.546875 319.980469 76.496094 320.660156 70.253906 323.101562 C 74.324219 325.273438 77.855469 328.125 80.832031 331.644531 C 83.546875 334.085938 85.582031 337.074219 86.9375 340.605469 C 90.46875 345.480469 94.664062 350.640625 99.550781 356.058594 C 105.253906 361.21875 107.957031 370.84375 107.683594 384.953125 C 107.683594 399.0625 102.933594 407.875 93.453125 411.402344 C 84.496094 414.664062 77.855469 410.046875 73.511719 397.566406 C 70.535156 387.632812 68.230469 396.921875 66.601562 425.445312"/></clipPath><clipPath id="g"><path d="M 776.707031 471.761719 L 66.601562 491.492188 L 66.589844 0.0117188 L 776.707031 -19.71875 Z M 776.707031 471.761719"/></clipPath><clipPath id="i"><path d="M 146 186 L 772 186 L 772 494 L 146 494 Z M 146 186"/></clipPath><clipPath id="j"><path d="M 187.433594 413.847656 L 200.859375 395.328125 C 195.824219 391.875 190.949219 389.773438 186.210938 389.027344 C 184.039062 387.941406 182.015625 387.667969 180.101562 388.210938 C 180.101562 393.097656 180.238281 397.976562 180.519531 402.863281 C 180.273438 403.210938 180 403.550781 179.707031 403.878906 C 183.304688 405.847656 185.871094 409.175781 187.433594 413.847656 Z M 382.320312 459.417969 C 381.191406 456.636719 380.242188 453.648438 379.472656 450.46875 C 377.84375 443.964844 377.027344 440.164062 377.027344 439.078125 C 377.300781 433.644531 380.148438 429.3125 385.578125 426.054688 C 392.082031 421.980469 400.082031 421.710938 409.582031 425.242188 C 410.667969 425.511719 414.730469 427.546875 421.789062 431.347656 C 425.847656 433.511719 428.292969 434.1875 429.105469 433.375 C 430.191406 433.917969 430.601562 432.152344 430.328125 428.089844 C 430.871094 426.460938 429.648438 423.476562 426.664062 419.132812 C 423.6875 412.625 418.9375 406.921875 412.421875 402.046875 C 412.964844 401.503906 413.371094 401.097656 413.644531 400.824219 C 416.902344 400.824219 420.566406 401.503906 424.640625 402.863281 C 426.527344 403.949219 429.378906 406.390625 433.179688 410.183594 C 438.871094 415.613281 443.621094 421.304688 447.421875 427.277344 C 446.0625 422.390625 446.46875 417.910156 448.640625 413.847656 C 450.804688 408.429688 454.0625 404.492188 458.40625 402.046875 C 460.847656 425.375 470.746094 445.1875 488.097656 461.453125 C 492.714844 464.714844 498.957031 469.464844 506.820312 475.699219 C 512.25 480.042969 514.953125 484.105469 514.953125 487.90625 C 514.953125 489.953125 514.542969 491.855469 513.730469 493.609375 C 549.632812 493.609375 589.914062 488.585938 634.574219 478.550781 C 661.699219 472.574219 692.613281 464.171875 727.328125 453.320312 C 754.195312 444.632812 768.152344 440.570312 769.238281 441.113281 C 769.554688 441.261719 769.894531 441.382812 770.257812 441.519531 C 766.207031 428.046875 766.546875 411.765625 771.277344 392.691406 C 771.546875 374.238281 766.117188 362.847656 755 358.5 C 753.914062 383.1875 751.074219 401.777344 746.457031 414.253906 C 742.386719 425.917969 736.015625 434.867188 727.328125 441.113281 C 719.195312 446.804688 710.382812 437.039062 700.894531 411.8125 C 689.773438 440.027344 680.679688 452.640625 673.632812 449.65625 C 666.574219 446.136719 653.824219 444.765625 635.386719 445.582031 C 617.753906 445.851562 600.128906 441.382812 582.496094 432.152344 L 582.085938 435.410156 C 582.085938 435.953125 583.308594 439.753906 585.753906 446.804688 C 590.085938 454.40625 597.277344 459.292969 607.3125 461.453125 C 555.234375 471.761719 518.074219 466.476562 495.835938 445.582031 C 480.914062 431.757812 473.597656 418.191406 473.867188 404.898438 C 473.867188 402.726562 475.621094 394.582031 479.148438 380.484375 C 481.050781 373.152344 482.542969 365.832031 483.628906 358.5 C 485.246094 350.640625 490.269531 341.824219 498.675781 332.0625 C 506.820312 322.015625 503.5625 301.132812 488.914062 269.386719 C 493.527344 294.070312 490.542969 313.339844 479.964844 327.175781 C 469.660156 340.195312 463.414062 348.601562 461.253906 352.402344 C 458.8125 355.664062 457.453125 360.265625 457.183594 366.242188 C 457.453125 371.386719 452.839844 379.65625 443.347656 391.0625 C 444.164062 385.632812 444.570312 380.609375 444.570312 376.003906 C 444.570312 371.117188 442.941406 360.945312 439.683594 345.480469 C 437.792969 330.828125 424.21875 319.4375 398.996094 311.300781 C 412.285156 317.535156 420.972656 330.296875 425.035156 349.554688 C 425.578125 357.425781 425.578125 363.117188 425.035156 366.648438 C 425.035156 369.894531 413.914062 379.261719 391.675781 394.714844 C 369.980469 409.097656 358.851562 416.292969 358.316406 416.292969 C 349.902344 413.03125 343.535156 407.613281 339.191406 400.011719 C 335.390625 391.875 334.710938 384.816406 337.164062 378.855469 C 332.550781 378.570312 328.070312 380.078125 323.726562 383.324219 C 318.582031 386.039062 317.765625 390.246094 321.285156 395.9375 C 304.203125 385.632812 290.777344 375.867188 281.003906 366.648438 C 267.179688 352.539062 259.984375 337.210938 259.441406 320.660156 C 259.441406 316.054688 264.328125 300.179688 274.101562 273.050781 C 276.535156 266.535156 277.621094 260.707031 277.347656 255.550781 C 277.621094 253.660156 276.804688 247.6875 274.90625 237.652344 C 272.460938 226.53125 271.242188 220.148438 271.242188 218.519531 C 271.242188 211.199219 272.460938 204.546875 274.90625 198.585938 C 277.347656 192.339844 280.335938 188.414062 283.863281 186.785156 C 260.257812 195.734375 251.171875 215 256.601562 244.5625 C 259.308594 257.585938 259.714844 266.136719 257.824219 270.199219 C 255.925781 276.988281 247.238281 279.691406 231.773438 278.347656 C 222.292969 277.804688 209.398438 274 193.132812 266.953125 C 176.855469 259.621094 166.550781 249.453125 162.207031 236.429688 C 158.949219 243.476562 160.714844 251.351562 167.5 260.03125 C 177.261719 268.175781 181.878906 279.160156 181.324219 292.984375 C 181.324219 305.746094 170.339844 303.574219 148.371094 286.480469 C 146.199219 289.195312 146.335938 298.28125 148.78125 313.746094 C 151.765625 328.125 164.648438 343.453125 187.433594 359.722656 C 200.167969 369.828125 209.253906 378.234375 214.691406 384.953125 C 218.132812 383.199219 221.59375 381.839844 225.066406 380.890625 C 222.519531 378.742188 220.144531 376.582031 217.949219 374.375 C 213.605469 368.140625 209.273438 362.167969 204.929688 356.476562 C 201.402344 350.230469 198.28125 346.566406 195.566406 345.480469 C 193.394531 343.589844 186.753906 343.453125 175.632812 345.074219 C 176.449219 344.53125 176.855469 343.988281 176.855469 343.453125 C 183.359375 338.296875 188.519531 335.714844 192.308594 335.714844 C 197.738281 335.445312 202.894531 336.9375 207.769531 340.195312 C 214.828125 343.453125 217.949219 348.738281 217.136719 356.058594 C 220.394531 351.726562 223.234375 343.714844 225.675781 332.0625 C 228.664062 321.472656 230.15625 315.78125 230.15625 314.96875 C 229.886719 312.796875 227.578125 308.722656 223.234375 302.761719 C 219.703125 296.785156 216.59375 292.851562 213.878906 290.960938 C 220.394531 290.960938 226.898438 293.539062 233.414062 298.6875 C 242.089844 306.007812 246.570312 315.238281 246.828125 326.359375 C 247.101562 334.765625 244.398438 346.292969 238.695312 360.945312 C 238.96875 365.5625 241.277344 370.980469 245.621094 377.226562 C 246.726562 378.617188 247.882812 379.976562 249.070312 381.296875 C 256.59375 383.144531 265.742188 386.402344 276.535156 391.0625 C 279.25 392.148438 300.402344 405.714844 340.003906 431.757812 C 357.582031 443.433594 371.6875 452.652344 382.320312 459.417969"/></clipPath><clipPath id="k"><path d="M 771.558594 493.609375 L 146.199219 510.972656 L 146.199219 186.785156 L 771.546875 169.410156 Z M 771.558594 493.609375"/></clipPath><clipPath id="m"><path d="M 175 290 L 249.90625 290 L 249.90625 382 L 175 382 Z M 175 290"/></clipPath><clipPath id="n"><path d="M 225.066406 380.890625 C 231.003906 379.441406 237.035156 379.171875 243.175781 380.078125 C 245.019531 380.371094 246.988281 380.777344 249.070312 381.296875 C 247.882812 379.976562 246.726562 378.617188 245.621094 377.226562 C 241.277344 370.980469 238.96875 365.5625 238.695312 360.945312 C 244.398438 346.292969 247.101562 334.765625 246.828125 326.359375 C 246.570312 315.238281 242.089844 306.007812 233.414062 298.6875 C 226.898438 293.539062 220.394531 290.960938 213.878906 290.960938 C 216.59375 292.851562 219.703125 296.785156 223.234375 302.761719 C 227.578125 308.722656 229.886719 312.796875 230.15625 314.96875 C 230.15625 315.78125 228.664062 321.472656 225.675781 332.0625 C 223.234375 343.714844 220.394531 351.726562 217.136719 356.058594 C 217.949219 348.738281 214.828125 343.453125 207.769531 340.195312 C 202.894531 336.9375 197.738281 335.445312 192.308594 335.714844 C 188.519531 335.714844 183.359375 338.296875 176.855469 343.453125 C 176.855469 343.988281 176.449219 344.53125 175.632812 345.074219 C 186.753906 343.453125 193.394531 343.589844 195.566406 345.480469 C 198.28125 346.566406 201.402344 350.230469 204.929688 356.476562 C 209.273438 362.167969 213.605469 368.140625 217.949219 374.375 C 220.144531 376.582031 222.519531 378.742188 225.066406 380.890625"/></clipPath><clipPath id="o"><path d="M 249.082031 381.296875 L 175.632812 383.335938 L 175.632812 290.960938 L 249.070312 288.914062 Z M 249.082031 381.296875"/></clipPath><clipPath id="q"><path d="M 732 271 L 750.878906 271 L 750.878906 304 L 732 304 Z M 732 271"/></clipPath><clipPath id="r"><path d="M 750.121094 277.53125 C 744.421875 274 738.460938 271.828125 732.214844 271.015625 C 740.632812 282.679688 746.59375 293.539062 750.121094 303.574219 C 750.121094 294.886719 750.121094 286.207031 750.121094 277.53125"/></clipPath><clipPath id="s"><path d="M 750.121094 303.574219 L 732.214844 304.074219 L 732.214844 271.015625 L 750.121094 270.515625 Z M 750.121094 303.574219"/></clipPath><clipPath id="u"><path d="M 392 195 L 437 195 L 437 271 L 392 271 Z M 392 195"/></clipPath><clipPath id="v"><path d="M 392.082031 214.457031 C 392.355469 217.171875 392.492188 219.46875 392.492188 221.371094 C 392.761719 221.644531 394.121094 223.949219 396.5625 228.296875 C 409.582031 242.121094 422.058594 256.226562 433.992188 270.605469 C 434.535156 268.433594 435.214844 266.535156 436.03125 264.917969 C 436.289062 258.941406 431.277344 250.128906 420.972656 238.464844 C 410.398438 226.800781 405.105469 218.25 405.105469 212.828125 C 405.105469 211.472656 405.511719 210.113281 406.324219 208.757812 C 406.597656 204.140625 408.363281 199.808594 411.621094 195.734375 C 406.460938 198.179688 402.253906 200.894531 398.996094 203.878906 C 394.121094 207.128906 391.8125 210.65625 392.082031 214.457031"/></clipPath><clipPath id="w"><path d="M 436.300781 270.609375 L 391.8125 271.839844 L 391.800781 195.734375 L 436.289062 194.5 Z M 436.300781 270.609375"/></clipPath><clipPath id="y"><path d="M 413 165.085938 L 419 165.085938 L 419 187 L 413 187 Z M 413 165.085938"/></clipPath><clipPath id="z"><path d="M 417.714844 170.097656 C 417.171875 169.011719 416.359375 168.0625 415.273438 167.246094 C 415 165.890625 414.324219 165.222656 413.238281 165.222656 C 413.238281 172 413.371094 179.046875 413.644531 186.378906 C 414.730469 185.292969 415.410156 184.75 415.679688 184.75 C 417.582031 182.304688 418.53125 179.320312 418.53125 175.800781 C 418.800781 173.355469 418.53125 171.457031 417.714844 170.097656"/></clipPath><clipPath id="A"><path d="M 418.8125 186.378906 L 413.238281 186.535156 L 413.238281 165.222656 L 418.800781 165.0625 Z M 418.8125 186.378906"/></clipPath><clipPath id="C"><path d="M 555 137 L 587 137 L 587 278 L 555 278 Z M 555 137"/></clipPath><clipPath id="D"><path d="M 562.15625 137.957031 C 561.882812 171.320312 562.96875 190.859375 565.402344 196.550781 C 568.929688 203.066406 572.730469 210.25 576.792969 218.113281 C 581.136719 224.628906 579.371094 231.675781 571.511719 239.28125 C 564.191406 245.242188 558.761719 254.882812 555.234375 268.175781 C 555.503906 268.433594 558.21875 271.695312 563.367188 277.9375 C 563.105469 276.308594 562.824219 274.953125 562.5625 273.867188 C 562.824219 271.695312 568.253906 266.535156 578.828125 258.398438 C 589.949219 249.996094 588.46875 225.445312 574.359375 184.75 C 569.203125 168.46875 565.128906 152.867188 562.15625 137.957031"/></clipPath><clipPath id="E"><path d="M 589.972656 277.925781 L 555.234375 278.898438 L 555.222656 137.957031 L 589.949219 136.996094 Z M 589.972656 277.925781"/></clipPath><clipPath id="G"><path d="M 618 362.03125 L 635 362.03125 L 635 393.890625 L 618 393.890625 Z M 618 362.03125"/></clipPath><clipPath id="H"><path d="M 623.183594 365.832031 C 622.910156 366.105469 622.230469 366.785156 621.144531 367.871094 C 619.789062 370.84375 618.972656 374.511719 618.703125 378.855469 C 618.703125 382.644531 619.515625 386.039062 621.144531 389.027344 C 622.773438 392.011719 624.539062 393.371094 626.441406 393.097656 C 628.871094 392.828125 630.910156 390.925781 632.539062 387.398438 C 634.167969 384.410156 634.84375 380.890625 634.574219 376.820312 C 634.84375 374.101562 634.574219 371.660156 633.757812 369.488281 C 633.488281 368.402344 633.082031 367.328125 632.539062 366.242188 C 631.453125 363.523438 629.6875 362.4375 627.242188 362.980469 C 625.355469 363.253906 623.996094 364.203125 623.183594 365.832031"/></clipPath><clipPath id="I"><path d="M 634.84375 393.371094 L 618.703125 393.8125 L 618.691406 362.4375 L 634.84375 361.988281 Z M 634.84375 393.371094"/></clipPath><clipPath id="K"><path d="M 377 400 L 515 400 L 515 494 L 377 494 Z M 377 400"/></clipPath><clipPath id="L"><path d="M 513.730469 493.609375 C 514.542969 491.855469 514.953125 489.953125 514.953125 487.90625 C 514.953125 484.105469 512.25 480.042969 506.820312 475.699219 C 498.957031 469.464844 492.714844 464.714844 488.097656 461.453125 C 470.746094 445.1875 460.847656 425.375 458.40625 402.046875 C 454.0625 404.492188 450.804688 408.429688 448.640625 413.847656 C 446.46875 417.910156 446.0625 422.390625 447.421875 427.277344 C 443.621094 421.304688 438.871094 415.613281 433.179688 410.183594 C 429.378906 406.390625 426.527344 403.949219 424.640625 402.863281 C 420.566406 401.503906 416.902344 400.824219 413.644531 400.824219 C 413.371094 401.097656 412.964844 401.503906 412.421875 402.046875 C 418.9375 406.921875 423.6875 412.625 426.664062 419.132812 C 429.648438 423.476562 430.871094 426.460938 430.328125 428.089844 C 430.601562 432.152344 430.191406 433.917969 429.105469 433.375 C 428.292969 434.1875 425.847656 433.511719 421.789062 431.347656 C 414.730469 427.546875 410.667969 425.511719 409.582031 425.242188 C 400.082031 421.710938 392.082031 421.980469 385.578125 426.054688 C 380.148438 429.3125 377.300781 433.644531 377.027344 439.078125 C 377.027344 440.164062 377.84375 443.964844 379.472656 450.46875 C 380.242188 453.648438 381.191406 456.636719 382.320312 459.417969 C 395.636719 468.015625 403.496094 472.757812 405.917969 473.660156 C 410.523438 475.722656 415.273438 477.621094 420.160156 479.363281 C 420.703125 479.363281 420.839844 478.550781 420.566406 476.921875 C 421.109375 475.5625 421.515625 474.339844 421.789062 473.253906 C 421.515625 469.996094 421.109375 467.429688 420.566406 465.527344 C 420.296875 462.269531 419.753906 460.097656 418.9375 459.011719 C 418.394531 457.121094 417.582031 455.085938 416.496094 452.914062 L 416.496094 452.503906 C 417.582031 453.046875 418.394531 453.320312 418.9375 453.320312 C 419.480469 453.59375 420.160156 454.136719 420.972656 454.949219 C 422.058594 455.492188 422.875 456.308594 423.40625 457.394531 C 424.21875 457.925781 424.773438 458.875 425.035156 460.234375 C 425.578125 461.046875 426.121094 462.269531 426.664062 463.898438 C 426.84375 463.898438 426.980469 464.035156 427.070312 464.304688 C 426.820312 462.03125 426.820312 460.132812 427.070312 458.605469 C 427.070312 456.972656 427.070312 455.222656 427.070312 453.320312 C 427.886719 452.234375 428.429688 451.011719 428.699219 449.65625 C 429.515625 448.027344 430.328125 446.394531 431.144531 444.765625 C 431.957031 443.148438 432.90625 441.792969 433.992188 440.707031 C 434.808594 439.347656 435.339844 438.398438 435.613281 437.855469 C 436.15625 435.953125 436.425781 434.324219 436.425781 432.980469 C 436.425781 427.976562 436.425781 423.375 436.425781 419.132812 C 436.699219 419.683594 436.84375 420.5 436.84375 421.574219 C 437.648438 424.019531 438.460938 426.191406 439.277344 428.089844 C 439.820312 431.609375 440.226562 435.003906 440.5 438.261719 C 440.5 440.976562 440.5 443.816406 440.5 446.804688 C 440.5 449.246094 440.363281 451.960938 440.089844 454.949219 C 440.363281 457.394531 440.769531 460.640625 441.3125 464.714844 C 442.398438 467.699219 443.347656 469.871094 444.164062 471.21875 C 445.25 472.574219 446.0625 473.660156 446.605469 474.476562 L 447.421875 474.476562 C 448.234375 474.203125 448.640625 474.339844 448.640625 474.882812 C 449.175781 474.613281 449.445312 474.339844 449.445312 474.070312 C 449.445312 471.367188 449.445312 468.921875 449.445312 466.75 C 450 464.035156 450.261719 462.40625 450.261719 461.863281 C 451.347656 460.234375 452.023438 459.554688 452.296875 459.824219 C 453.109375 459.292969 453.652344 459.011719 453.925781 459.011719 L 454.738281 458.605469 C 454.738281 458.875 454.738281 459.417969 454.738281 460.234375 C 454.738281 460.777344 454.875 461.320312 455.148438 461.863281 C 455.148438 464.035156 455.148438 466.613281 455.148438 469.601562 C 455.417969 470.6875 455.28125 472.441406 454.738281 474.882812 C 454.195312 476.785156 453.382812 479.09375 452.296875 481.808594 C 452.566406 481.535156 452.976562 481.265625 453.519531 480.992188 C 453.789062 480.179688 454.46875 479.636719 455.554688 479.363281 C 456.367188 479.09375 457.589844 479.09375 459.21875 479.363281 C 460.304688 479.90625 461.253906 480.585938 462.058594 481.390625 C 463.144531 481.945312 463.824219 482.757812 464.09375 483.84375 C 464.636719 484.917969 465.179688 485.871094 465.722656 486.683594 C 465.996094 486.957031 466.128906 487.226562 466.128906 487.5 C 465.25 488.378906 464.367188 489.261719 463.484375 490.144531 C 479.128906 492.5 495.878906 493.652344 513.730469 493.609375"/></clipPath><clipPath id="M"><path d="M 514.964844 493.652344 L 377.027344 497.488281 L 377.015625 400.824219 L 514.953125 396.992188 Z M 514.964844 493.652344"/></clipPath><clipPath id="O"><path d="M 416 419 L 467 419 L 467 491 L 416 491 Z M 416 419"/></clipPath><clipPath id="P"><path d="M 420.160156 479.363281 C 433.53125 484.117188 447.976562 487.714844 463.484375 490.144531 C 464.367188 489.261719 465.25 488.378906 466.128906 487.5 C 466.128906 487.226562 465.996094 486.957031 465.722656 486.683594 C 465.179688 485.871094 464.636719 484.917969 464.09375 483.84375 C 463.824219 482.757812 463.144531 481.945312 462.058594 481.390625 C 461.253906 480.585938 460.304688 479.90625 459.21875 479.363281 C 457.589844 479.09375 456.367188 479.09375 455.554688 479.363281 C 454.46875 479.636719 453.789062 480.179688 453.519531 480.992188 C 452.976562 481.265625 452.566406 481.535156 452.296875 481.808594 C 453.382812 479.09375 454.195312 476.785156 454.738281 474.882812 C 455.28125 472.441406 455.417969 470.6875 455.148438 469.601562 C 455.148438 466.613281 455.148438 464.035156 455.148438 461.863281 C 454.875 461.320312 454.738281 460.777344 454.738281 460.234375 C 454.738281 459.417969 454.738281 458.875 454.738281 458.605469 L 453.925781 459.011719 C 453.652344 459.011719 453.109375 459.292969 452.296875 459.824219 C 452.023438 459.554688 451.347656 460.234375 450.261719 461.863281 C 450.261719 462.40625 450 464.035156 449.445312 466.75 C 449.445312 468.921875 449.445312 471.367188 449.445312 474.070312 C 449.445312 474.339844 449.175781 474.613281 448.640625 474.882812 C 448.640625 474.339844 448.234375 474.203125 447.421875 474.476562 L 446.605469 474.476562 C 446.0625 473.660156 445.25 472.574219 444.164062 471.21875 C 443.347656 469.871094 442.398438 467.699219 441.3125 464.714844 C 440.769531 460.640625 440.363281 457.394531 440.089844 454.949219 C 440.363281 451.960938 440.5 449.246094 440.5 446.804688 C 440.5 443.816406 440.5 440.976562 440.5 438.261719 C 440.226562 435.003906 439.820312 431.609375 439.277344 428.089844 C 438.460938 426.191406 437.648438 424.019531 436.84375 421.574219 C 436.84375 420.5 436.699219 419.683594 436.425781 419.132812 C 436.425781 423.375 436.425781 427.976562 436.425781 432.980469 C 436.425781 434.324219 436.15625 435.953125 435.613281 437.855469 C 435.339844 438.398438 434.808594 439.347656 433.992188 440.707031 C 432.90625 441.792969 431.957031 443.148438 431.144531 444.765625 C 430.328125 446.394531 429.515625 448.027344 428.699219 449.65625 C 428.429688 451.011719 427.886719 452.234375 427.070312 453.320312 C 427.070312 455.222656 427.070312 456.972656 427.070312 458.605469 C 426.820312 460.132812 426.820312 462.03125 427.070312 464.304688 C 426.980469 464.035156 426.84375 463.898438 426.664062 463.898438 C 426.121094 462.269531 425.578125 461.046875 425.035156 460.234375 C 424.773438 458.875 424.21875 457.925781 423.40625 457.394531 C 422.875 456.308594 422.058594 455.492188 420.972656 454.949219 C 420.160156 454.136719 419.480469 453.59375 418.9375 453.320312 C 418.394531 453.320312 417.582031 453.046875 416.496094 452.503906 L 416.496094 452.914062 C 417.582031 455.085938 418.394531 457.121094 418.9375 459.011719 C 419.753906 460.097656 420.296875 462.269531 420.566406 465.527344 C 421.109375 467.429688 421.515625 469.996094 421.789062 473.253906 C 421.515625 474.339844 421.109375 475.5625 420.566406 476.921875 C 420.839844 478.550781 420.703125 479.363281 420.160156 479.363281"/></clipPath><clipPath id="Q"><path d="M 466.140625 490.144531 L 416.496094 491.527344 L 416.484375 419.132812 L 466.128906 417.75 Z M 466.140625 490.144531"/></clipPath><clipPath id="S"><path d="M 0.550781 372 L 191 372 L 191 545 L 0.550781 545 Z M 0.550781 372"/></clipPath><clipPath id="T"><path d="M 116 390 L 772 390 L 772 603 L 116 603 Z M 116 390"/></clipPath><linearGradient x1=".198" gradientTransform="matrix(-.0081 -21.35935 -21.3558 .5933 296.303 84.704)" xmlns:xlink="http://www.w3.org/1999/xlink" y1="0" x2="1.204" gradientUnits="userSpaceOnUse" y2="0" xlink:type="simple" xlink:actuate="onLoad" id="d" xlink:show="other"><stop stop-color="#F79526" offset="0"/><stop stop-color="#F79525" offset=".008"/><stop stop-color="#F79425" offset=".016"/><stop stop-color="#F79325" offset=".02"/><stop stop-color="#F79325" offset=".023"/><stop stop-color="#F79224" offset=".031"/><stop stop-color="#F79224" offset=".047"/><stop stop-color="#F79124" offset=".055"/><stop stop-color="#F79023" offset=".063"/><stop stop-color="#F78F23" offset=".066"/><stop stop-color="#F78E23" offset=".07"/><stop stop-color="#F78D23" offset=".078"/><stop stop-color="#F78C23" offset=".086"/><stop stop-color="#F68C22" offset=".094"/><stop stop-color="#F68C22" offset=".102"/><stop stop-color="#F68A22" offset=".105"/><stop stop-color="#F68A22" offset=".109"/><stop stop-color="#F68922" offset=".113"/><stop stop-color="#F68922" offset=".117"/><stop stop-color="#F68822" offset=".125"/><stop stop-color="#F68722" offset=".133"/><stop stop-color="#F68721" offset=".141"/><stop stop-color="#F68621" offset=".145"/><stop stop-color="#F68621" offset=".148"/><stop stop-color="#F68521" offset=".156"/><stop stop-color="#F68521" offset=".164"/><stop stop-color="#F68420" offset=".172"/><stop stop-color="#F68320" offset=".18"/><stop stop-color="#F68220" offset=".188"/><stop stop-color="#F68220" offset=".191"/><stop stop-color="#F58120" offset=".195"/><stop stop-color="#F5801F" offset=".203"/><stop stop-color="#F57F1F" offset=".211"/><stop stop-color="#F57E1F" offset=".219"/><stop stop-color="#F57D1F" offset=".227"/><stop stop-color="#F57D1F" offset=".23"/><stop stop-color="#F57D1E" offset=".234"/><stop stop-color="#F57C1E" offset=".238"/><stop stop-color="#F57C1E" offset=".242"/><stop stop-color="#F57B1E" offset=".25"/><stop stop-color="#F57A1E" offset=".258"/><stop stop-color="#F57A1E" offset=".266"/><stop stop-color="#F5791E" offset=".27"/><stop stop-color="#F5781E" offset=".273"/><stop stop-color="#F5781E" offset=".281"/><stop stop-color="#F5781E" offset=".289"/><stop stop-color="#F5771E" offset=".297"/><stop stop-color="#F5761D" offset=".305"/><stop stop-color="#F5751D" offset=".313"/><stop stop-color="#F4741D" offset=".32"/><stop stop-color="#F4731D" offset=".328"/><stop stop-color="#F4721C" offset=".332"/><stop stop-color="#F4721C" offset=".336"/><stop stop-color="#F4711C" offset=".34"/><stop stop-color="#F4711B" offset=".344"/><stop stop-color="#F4701B" offset=".348"/><stop stop-color="#F46F1B" offset=".352"/><stop stop-color="#F46E1B" offset=".355"/><stop stop-color="#F46E1A" offset=".359"/><stop stop-color="#F46E1A" offset=".367"/><stop stop-color="#F46D1A" offset=".375"/><stop stop-color="#F46C1A" offset=".383"/><stop stop-color="#F46C1A" offset=".391"/><stop stop-color="#F46B1A" offset=".398"/><stop stop-color="#F46B19" offset=".406"/><stop stop-color="#F36A19" offset=".414"/><stop stop-color="#F36919" offset=".422"/><stop stop-color="#F36819" offset=".43"/><stop stop-color="#F36719" offset=".438"/><stop stop-color="#F36619" offset=".441"/><stop stop-color="#F36619" offset=".445"/><stop stop-color="#F36519" offset=".453"/><stop stop-color="#F36519" offset=".461"/><stop stop-color="#F36419" offset=".469"/><stop stop-color="#F36319" offset=".477"/><stop stop-color="#F36319" offset=".484"/><stop stop-color="#F36219" offset=".492"/><stop stop-color="#F36218" offset=".5"/><stop stop-color="#F36118" offset=".508"/><stop stop-color="#F36018" offset=".516"/><stop stop-color="#F35F19" offset=".531"/><stop stop-color="#F35F19" offset=".547"/><stop stop-color="#F35E19" offset=".555"/><stop stop-color="#F25D19" offset=".563"/><stop stop-color="#F25C19" offset=".566"/><stop stop-color="#F25B19" offset=".57"/><stop stop-color="#F25A1A" offset=".578"/><stop stop-color="#F2591A" offset=".594"/><stop stop-color="#F2591A" offset=".602"/><stop stop-color="#F2571A" offset=".605"/><stop stop-color="#F2571A" offset=".609"/><stop stop-color="#F2561A" offset=".625"/><stop stop-color="#F2551A" offset=".633"/><stop stop-color="#F2541A" offset=".641"/><stop stop-color="#F2541B" offset=".645"/><stop stop-color="#F2541B" offset=".648"/><stop stop-color="#F2531B" offset=".656"/><stop stop-color="#F2521B" offset=".672"/><stop stop-color="#F1521B" offset=".676"/><stop stop-color="#F1511B" offset=".68"/><stop stop-color="#F1511B" offset=".688"/><stop stop-color="#F1501B" offset=".695"/><stop stop-color="#F1501B" offset=".703"/><stop stop-color="#F14F1B" offset=".711"/><stop stop-color="#F14F1C" offset=".719"/><stop stop-color="#F14E1C" offset=".727"/><stop stop-color="#F14D1C" offset=".734"/><stop stop-color="#F14C1C" offset=".742"/><stop stop-color="#F14B1C" offset=".75"/><stop stop-color="#F14A1C" offset=".766"/><stop stop-color="#F14A1C" offset=".773"/><stop stop-color="#F1491C" offset=".781"/><stop stop-color="#F1481D" offset=".813"/><stop stop-color="#F1481D" offset=".875"/><stop stop-color="#F1481D" offset="1"/></linearGradient><linearGradient x1="-.06" gradientTransform="matrix(-.00814 -576.00409 -575.91443 16.00012 419.746 444.737)" xmlns:xlink="http://www.w3.org/1999/xlink" y1="0" x2=".789" gradientUnits="userSpaceOnUse" y2="0" xlink:type="simple" xlink:actuate="onLoad" id="h" xlink:show="other"><stop stop-color="#EE2822" offset="0"/><stop stop-color="#EE2822" offset=".063"/><stop stop-color="#EE2822" offset=".078"/><stop stop-color="#EE2722" offset=".094"/><stop stop-color="#EE2722" offset=".109"/><stop stop-color="#EE2622" offset=".125"/><stop stop-color="#EE2622" offset=".141"/><stop stop-color="#EE2522" offset=".156"/><stop stop-color="#EE2522" offset=".188"/><stop stop-color="#EE2523" offset=".203"/><stop stop-color="#EE2423" offset=".219"/><stop stop-color="#EE2323" offset=".25"/><stop stop-color="#EE2323" offset=".266"/><stop stop-color="#EE2223" offset=".281"/><stop stop-color="#ED2123" offset=".313"/><stop stop-color="#ED2023" offset=".344"/><stop stop-color="#ED2023" offset=".375"/><stop stop-color="#ED1F23" offset=".406"/><stop stop-color="#EC1F24" offset=".422"/><stop stop-color="#EB1F24" offset=".438"/><stop stop-color="#EB1F24" offset=".453"/><stop stop-color="#EA1F24" offset=".469"/><stop stop-color="#EA1F24" offset=".477"/><stop stop-color="#E91E24" offset=".484"/><stop stop-color="#E81E24" offset=".5"/><stop stop-color="#E81E24" offset=".516"/><stop stop-color="#E71E24" offset=".531"/><stop stop-color="#E71E24" offset=".547"/><stop stop-color="#E71E24" offset=".555"/><stop stop-color="#E61E24" offset=".563"/><stop stop-color="#E51E25" offset=".578"/><stop stop-color="#E51E25" offset=".594"/><stop stop-color="#E51E25" offset=".602"/><stop stop-color="#E41E25" offset=".609"/><stop stop-color="#E31D25" offset=".625"/><stop stop-color="#E21D25" offset=".641"/><stop stop-color="#E21D25" offset=".656"/><stop stop-color="#E11D25" offset=".672"/><stop stop-color="#E01D25" offset=".688"/><stop stop-color="#DF1D25" offset=".703"/><stop stop-color="#DF1D25" offset=".719"/><stop stop-color="#DE1D25" offset=".734"/><stop stop-color="#DD1E25" offset=".75"/><stop stop-color="#DC1E25" offset=".766"/><stop stop-color="#DC1E25" offset=".781"/><stop stop-color="#DB1E25" offset=".797"/><stop stop-color="#DA1E25" offset=".813"/><stop stop-color="#DA1E25" offset=".82"/><stop stop-color="#D91E25" offset=".828"/><stop stop-color="#D81E25" offset=".844"/><stop stop-color="#D81E25" offset=".859"/><stop stop-color="#D71E25" offset=".875"/><stop stop-color="#D61E25" offset=".891"/><stop stop-color="#D61E25" offset=".906"/><stop stop-color="#D51E25" offset=".922"/><stop stop-color="#D41E25" offset=".938"/><stop stop-color="#D41E25" offset=".945"/><stop stop-color="#D31E25" offset=".953"/><stop stop-color="#D21E25" offset=".969"/><stop stop-color="#D21E25" offset=".977"/><stop stop-color="#D11E25" offset=".984"/><stop stop-color="#D11E25" offset="1"/></linearGradient><linearGradient x1="-.141" gradientTransform="matrix(-.00814 -273.24911 -273.20627 7.59024 459.068 463.705)" xmlns:xlink="http://www.w3.org/1999/xlink" y1="0" x2="1.045" gradientUnits="userSpaceOnUse" y2="0" xlink:type="simple" xlink:actuate="onLoad" id="l" xlink:show="other"><stop stop-color="#F36618" offset="0"/><stop stop-color="#F36618" offset=".063"/><stop stop-color="#F36618" offset=".094"/><stop stop-color="#F36618" offset=".109"/><stop stop-color="#F36618" offset=".117"/><stop stop-color="#F36518" offset=".121"/><stop stop-color="#F36518" offset=".125"/><stop stop-color="#F36518" offset=".133"/><stop stop-color="#F36318" offset=".137"/><stop stop-color="#F36318" offset=".141"/><stop stop-color="#F36218" offset=".145"/><stop stop-color="#F36218" offset=".148"/><stop stop-color="#F36218" offset=".156"/><stop stop-color="#F36118" offset=".164"/><stop stop-color="#F36018" offset=".168"/><stop stop-color="#F36019" offset=".172"/><stop stop-color="#F36019" offset=".18"/><stop stop-color="#F35F19" offset=".188"/><stop stop-color="#F35E19" offset=".191"/><stop stop-color="#F35D19" offset=".195"/><stop stop-color="#F25D19" offset=".203"/><stop stop-color="#F25D19" offset=".207"/><stop stop-color="#F25C19" offset=".211"/><stop stop-color="#F25C19" offset=".215"/><stop stop-color="#F25B19" offset=".219"/><stop stop-color="#F25B19" offset=".227"/><stop stop-color="#F25A1A" offset=".23"/><stop stop-color="#F2591A" offset=".234"/><stop stop-color="#F2581A" offset=".238"/><stop stop-color="#F2581A" offset=".242"/><stop stop-color="#F2571A" offset=".246"/><stop stop-color="#F2571A" offset=".25"/><stop stop-color="#F2571A" offset=".258"/><stop stop-color="#F2561A" offset=".262"/><stop stop-color="#F2561A" offset=".266"/><stop stop-color="#F2551B" offset=".27"/><stop stop-color="#F2541B" offset=".273"/><stop stop-color="#F2531B" offset=".277"/><stop stop-color="#F2531B" offset=".281"/><stop stop-color="#F2531B" offset=".297"/><stop stop-color="#F1521B" offset=".301"/><stop stop-color="#F1511B" offset=".305"/><stop stop-color="#F1511B" offset=".313"/><stop stop-color="#F1511B" offset=".316"/><stop stop-color="#F1501B" offset=".32"/><stop stop-color="#F1501B" offset=".324"/><stop stop-color="#F14F1B" offset=".328"/><stop stop-color="#F14F1C" offset=".344"/><stop stop-color="#F14F1C" offset=".352"/><stop stop-color="#F14E1C" offset=".359"/><stop stop-color="#F14D1D" offset=".367"/><stop stop-color="#F14C1D" offset=".375"/><stop stop-color="#F14C1E" offset=".383"/><stop stop-color="#F14C1E" offset=".391"/><stop stop-color="#F14B1F" offset=".395"/><stop stop-color="#F14B1F" offset=".398"/><stop stop-color="#F14A1F" offset=".406"/><stop stop-color="#F14A20" offset=".414"/><stop stop-color="#F14920" offset=".418"/><stop stop-color="#F14920" offset=".422"/><stop stop-color="#F14820" offset=".426"/><stop stop-color="#F14821" offset=".43"/><stop stop-color="#F14821" offset=".438"/><stop stop-color="#F14721" offset=".441"/><stop stop-color="#F14722" offset=".445"/><stop stop-color="#F14722" offset=".453"/><stop stop-color="#F14622" offset=".457"/><stop stop-color="#F14623" offset=".461"/><stop stop-color="#F04623" offset=".469"/><stop stop-color="#F04523" offset=".484"/><stop stop-color="#F04523" offset=".492"/><stop stop-color="#F04424" offset=".496"/><stop stop-color="#F04324" offset=".5"/><stop stop-color="#F04324" offset=".508"/><stop stop-color="#F04324" offset=".512"/><stop stop-color="#F04225" offset=".516"/><stop stop-color="#F04225" offset=".523"/><stop stop-color="#F04225" offset=".527"/><stop stop-color="#F04226" offset=".531"/><stop stop-color="#F04126" offset=".547"/><stop stop-color="#F04126" offset=".555"/><stop stop-color="#F04027" offset=".559"/><stop stop-color="#F04027" offset=".563"/><stop stop-color="#F04027" offset=".57"/><stop stop-color="#F03F27" offset=".574"/><stop stop-color="#F03F27" offset=".578"/><stop stop-color="#F03F28" offset=".586"/><stop stop-color="#F03F28" offset=".594"/><stop stop-color="#F03F28" offset=".602"/><stop stop-color="#F03E29" offset=".605"/><stop stop-color="#F03E29" offset=".609"/><stop stop-color="#F03E29" offset=".617"/><stop stop-color="#F03D2A" offset=".621"/><stop stop-color="#F03D2A" offset=".625"/><stop stop-color="#F03D2A" offset=".641"/><stop stop-color="#F03C2B" offset=".645"/><stop stop-color="#F03C2B" offset=".648"/><stop stop-color="#F03C2B" offset=".656"/><stop stop-color="#F03C2B" offset=".664"/><stop stop-color="#F03B2C" offset=".668"/><stop stop-color="#F03B2C" offset=".672"/><stop stop-color="#F03B2C" offset=".688"/><stop stop-color="#F03B2C" offset=".703"/><stop stop-color="#F03A2D" offset=".711"/><stop stop-color="#F03A2D" offset=".715"/><stop stop-color="#F03A2E" offset=".719"/><stop stop-color="#F03A2E" offset=".727"/><stop stop-color="#F0392E" offset=".73"/><stop stop-color="#F0392F" offset=".734"/><stop stop-color="#F0392F" offset=".75"/><stop stop-color="#EF392F" offset=".754"/><stop stop-color="#EF382F" offset=".758"/><stop stop-color="#EF382F" offset=".766"/><stop stop-color="#EF382F" offset=".781"/><stop stop-color="#EF382F" offset=".797"/><stop stop-color="#EF382F" offset=".805"/><stop stop-color="#EF3830" offset=".813"/><stop stop-color="#EF3830" offset=".844"/><stop stop-color="#EF3830" offset=".852"/><stop stop-color="#EF3730" offset=".859"/><stop stop-color="#EF3730" offset=".875"/><stop stop-color="#EF3730" offset=".906"/><stop stop-color="#EF3730" offset=".914"/><stop stop-color="#EF3730" offset=".918"/><stop stop-color="#EF3631" offset=".922"/><stop stop-color="#EF3631" offset=".938"/><stop stop-color="#EF3631" offset="1"/></linearGradient><linearGradient x1=".589" gradientTransform="matrix(-.00814 -152.3861 -152.3621 4.23293 212.36 472.11)" xmlns:xlink="http://www.w3.org/1999/xlink" y1="0" x2="1.195" gradientUnits="userSpaceOnUse" y2="0" xlink:type="simple" xlink:actuate="onLoad" id="p" xlink:show="other"><stop stop-color="#F9E529" offset="0"/><stop stop-color="#F9E529" offset=".008"/><stop stop-color="#F9E429" offset=".016"/><stop stop-color="#F9E428" offset=".02"/><stop stop-color="#F9E427" offset=".023"/><stop stop-color="#F9E427" offset=".031"/><stop stop-color="#F9E426" offset=".039"/><stop stop-color="#F9E425" offset=".047"/><stop stop-color="#F9E424" offset=".063"/><stop stop-color="#F9E423" offset=".066"/><stop stop-color="#F9E423" offset=".07"/><stop stop-color="#F9E422" offset=".078"/><stop stop-color="#F9E322" offset=".086"/><stop stop-color="#F9E321" offset=".094"/><stop stop-color="#F9E321" offset=".102"/><stop stop-color="#F9E320" offset=".105"/><stop stop-color="#F9E320" offset=".109"/><stop stop-color="#F9E31F" offset=".117"/><stop stop-color="#F9E31F" offset=".125"/><stop stop-color="#F9E31E" offset=".133"/><stop stop-color="#F9E31E" offset=".137"/><stop stop-color="#F9E31D" offset=".141"/><stop stop-color="#F9E31D" offset=".145"/><stop stop-color="#F9E31C" offset=".148"/><stop stop-color="#F9E21C" offset=".156"/><stop stop-color="#F9E21B" offset=".172"/><stop stop-color="#F9E21A" offset=".188"/><stop stop-color="#F9E219" offset=".191"/><stop stop-color="#F9E219" offset=".195"/><stop stop-color="#F9E219" offset=".203"/><stop stop-color="#F9E218" offset=".211"/><stop stop-color="#F9E117" offset=".219"/><stop stop-color="#F9E117" offset=".227"/><stop stop-color="#F9E116" offset=".23"/><stop stop-color="#F9E116" offset=".234"/><stop stop-color="#F9E116" offset=".25"/><stop stop-color="#F9E115" offset=".266"/><stop stop-color="#F9E115" offset=".273"/><stop stop-color="#F9E114" offset=".281"/><stop stop-color="#F9E013" offset=".297"/><stop stop-color="#F9E013" offset=".313"/><stop stop-color="#F9E012" offset=".32"/><stop stop-color="#F9E011" offset=".328"/><stop stop-color="#F9E011" offset=".344"/><stop stop-color="#F9E011" offset=".352"/><stop stop-color="#F9E010" offset=".355"/><stop stop-color="#F9E00F" offset=".359"/><stop stop-color="#F9E00F" offset=".375"/><stop stop-color="#FAE00F" offset=".383"/><stop stop-color="#FADF0E" offset=".391"/><stop stop-color="#FADF0E" offset=".398"/><stop stop-color="#FADF0D" offset=".406"/><stop stop-color="#FADF0D" offset=".422"/><stop stop-color="#FADF0C" offset=".438"/><stop stop-color="#FADE0C" offset=".445"/><stop stop-color="#F9DE0C" offset=".453"/><stop stop-color="#F9DE0B" offset=".469"/><stop stop-color="#F9DE0B" offset=".484"/><stop stop-color="#F9DE0A" offset=".5"/><stop stop-color="#F9DD0A" offset=".516"/><stop stop-color="#F9DD0A" offset=".523"/><stop stop-color="#F9DD09" offset=".531"/><stop stop-color="#F9DD09" offset=".547"/><stop stop-color="#F9DD08" offset=".563"/><stop stop-color="#F9DD08" offset=".578"/><stop stop-color="#F9DC08" offset=".594"/><stop stop-color="#F9DC08" offset=".609"/><stop stop-color="#F9DC07" offset=".625"/><stop stop-color="#F9DC06" offset=".688"/><stop stop-color="#F9DB06" offset=".719"/><stop stop-color="#F9DA06" offset=".75"/><stop stop-color="#F9DA06" offset="1"/></linearGradient><linearGradient x1=".182" gradientTransform="matrix(-.00814 -576.0678 -575.97815 16.00192 741.168 408.83)" xmlns:xlink="http://www.w3.org/1999/xlink" y1="0" x2=".24" gradientUnits="userSpaceOnUse" y2="0" xlink:type="simple" xlink:actuate="onLoad" id="t" xlink:show="other"><stop stop-color="#ED2123" offset="0"/><stop stop-color="#ED2123" offset=".25"/><stop stop-color="#ED2123" offset=".375"/><stop stop-color="#ED2023" offset=".5"/><stop stop-color="#ED2023" offset="1"/></linearGradient><linearGradient x1="-.223" gradientTransform="matrix(-.00814 -67.34573 -67.33524 1.8707 414.052 256.182)" xmlns:xlink="http://www.w3.org/1999/xlink" y1="0" x2=".907" gradientUnits="userSpaceOnUse" y2="0" xlink:type="simple" xlink:actuate="onLoad" id="x" xlink:show="other"><stop stop-color="#F9AA2C" offset="0"/><stop stop-color="#F9AA2C" offset=".125"/><stop stop-color="#F9AA2C" offset=".188"/><stop stop-color="#F9AA2C" offset=".195"/><stop stop-color="#F9A92C" offset=".203"/><stop stop-color="#F9A92C" offset=".211"/><stop stop-color="#F9A82B" offset=".215"/><stop stop-color="#F9A72B" offset=".219"/><stop stop-color="#F9A62B" offset=".223"/><stop stop-color="#F9A52B" offset=".227"/><stop stop-color="#F8A52B" offset=".234"/><stop stop-color="#F8A52B" offset=".242"/><stop stop-color="#F8A42A" offset=".246"/><stop stop-color="#F8A32A" offset=".25"/><stop stop-color="#F8A32A" offset=".258"/><stop stop-color="#F8A22A" offset=".266"/><stop stop-color="#F8A029" offset=".27"/><stop stop-color="#F8A029" offset=".273"/><stop stop-color="#F8A029" offset=".281"/><stop stop-color="#F89F29" offset=".289"/><stop stop-color="#F89F29" offset=".293"/><stop stop-color="#F89E28" offset=".297"/><stop stop-color="#F89E28" offset=".301"/><stop stop-color="#F89D28" offset=".305"/><stop stop-color="#F89D28" offset=".309"/><stop stop-color="#F89C27" offset=".313"/><stop stop-color="#F89C27" offset=".316"/><stop stop-color="#F89B27" offset=".32"/><stop stop-color="#F89B27" offset=".328"/><stop stop-color="#F89A27" offset=".344"/><stop stop-color="#F89927" offset=".348"/><stop stop-color="#F79826" offset=".352"/><stop stop-color="#F79726" offset=".355"/><stop stop-color="#F79726" offset=".359"/><stop stop-color="#F79626" offset=".367"/><stop stop-color="#F79526" offset=".371"/><stop stop-color="#F79525" offset=".375"/><stop stop-color="#F79425" offset=".379"/><stop stop-color="#F79425" offset=".383"/><stop stop-color="#F79325" offset=".391"/><stop stop-color="#F79324" offset=".395"/><stop stop-color="#F79224" offset=".398"/><stop stop-color="#F79224" offset=".402"/><stop stop-color="#F79124" offset=".406"/><stop stop-color="#F79124" offset=".414"/><stop stop-color="#F79023" offset=".422"/><stop stop-color="#F78F23" offset=".43"/><stop stop-color="#F78E23" offset=".438"/><stop stop-color="#F78D23" offset=".441"/><stop stop-color="#F68C23" offset=".445"/><stop stop-color="#F68C22" offset=".449"/><stop stop-color="#F68C22" offset=".453"/><stop stop-color="#F68B22" offset=".457"/><stop stop-color="#F68B22" offset=".461"/><stop stop-color="#F68A22" offset=".465"/><stop stop-color="#F68A22" offset=".469"/><stop stop-color="#F68922" offset=".473"/><stop stop-color="#F68922" offset=".477"/><stop stop-color="#F68822" offset=".48"/><stop stop-color="#F68822" offset=".484"/><stop stop-color="#F68721" offset=".488"/><stop stop-color="#F68721" offset=".492"/><stop stop-color="#F68621" offset=".496"/><stop stop-color="#F68621" offset=".5"/><stop stop-color="#F68521" offset=".508"/><stop stop-color="#F68521" offset=".512"/><stop stop-color="#F68421" offset=".516"/><stop stop-color="#F68420" offset=".52"/><stop stop-color="#F68320" offset=".523"/><stop stop-color="#F68320" offset=".527"/><stop stop-color="#F68220" offset=".531"/><stop stop-color="#F68220" offset=".539"/><stop stop-color="#F68120" offset=".543"/><stop stop-color="#F5801F" offset=".547"/><stop stop-color="#F5801F" offset=".555"/><stop stop-color="#F57F1F" offset=".563"/><stop stop-color="#F57E1F" offset=".57"/><stop stop-color="#F57D1F" offset=".574"/><stop stop-color="#F57D1E" offset=".578"/><stop stop-color="#F57C1E" offset=".582"/><stop stop-color="#F57C1E" offset=".586"/><stop stop-color="#F57B1E" offset=".59"/><stop stop-color="#F57B1E" offset=".594"/><stop stop-color="#F57A1E" offset=".598"/><stop stop-color="#F57A1E" offset=".602"/><stop stop-color="#F5791E" offset=".609"/><stop stop-color="#F5791E" offset=".617"/><stop stop-color="#F5781E" offset=".625"/><stop stop-color="#F5771E" offset=".629"/><stop stop-color="#F5761D" offset=".633"/><stop stop-color="#F5761D" offset=".641"/><stop stop-color="#F5751D" offset=".645"/><stop stop-color="#F4741D" offset=".648"/><stop stop-color="#F4741D" offset=".652"/><stop stop-color="#F4731D" offset=".656"/><stop stop-color="#F4731D" offset=".66"/><stop stop-color="#F4721C" offset=".664"/><stop stop-color="#F4721C" offset=".672"/><stop stop-color="#F4711C" offset=".676"/><stop stop-color="#F4701B" offset=".68"/><stop stop-color="#F4701B" offset=".688"/><stop stop-color="#F46F1B" offset=".691"/><stop stop-color="#F46E1A" offset=".695"/><stop stop-color="#F46D1A" offset=".703"/><stop stop-color="#F46D1A" offset=".711"/><stop stop-color="#F46C1A" offset=".719"/><stop stop-color="#F46B1A" offset=".727"/><stop stop-color="#F46A19" offset=".73"/><stop stop-color="#F46919" offset=".734"/><stop stop-color="#F46919" offset=".742"/><stop stop-color="#F36919" offset=".746"/><stop stop-color="#F36819" offset=".75"/><stop stop-color="#F36819" offset=".754"/><stop stop-color="#F36719" offset=".758"/><stop stop-color="#F36719" offset=".762"/><stop stop-color="#F36619" offset=".766"/><stop stop-color="#F36519" offset=".77"/><stop stop-color="#F36519" offset=".773"/><stop stop-color="#F36519" offset=".781"/><stop stop-color="#F36419" offset=".789"/><stop stop-color="#F36319" offset=".793"/><stop stop-color="#F36319" offset=".797"/><stop stop-color="#F36219" offset=".813"/><stop stop-color="#F36118" offset=".816"/><stop stop-color="#F36118" offset=".82"/><stop stop-color="#F36018" offset=".828"/><stop stop-color="#F36019" offset=".844"/><stop stop-color="#F35F19" offset=".852"/><stop stop-color="#F35E19" offset=".855"/><stop stop-color="#F25D19" offset=".859"/><stop stop-color="#F25D19" offset=".863"/><stop stop-color="#F25C19" offset=".867"/><stop stop-color="#F25C19" offset=".875"/><stop stop-color="#F25B19" offset=".883"/><stop stop-color="#F25A19" offset=".887"/><stop stop-color="#F25A1A" offset=".891"/><stop stop-color="#F2591A" offset=".895"/><stop stop-color="#F2591A" offset=".898"/><stop stop-color="#F2581A" offset=".906"/><stop stop-color="#F2571A" offset=".91"/><stop stop-color="#F2571A" offset=".914"/><stop stop-color="#F2571A" offset=".922"/><stop stop-color="#F2561A" offset=".93"/><stop stop-color="#F2551A" offset=".934"/><stop stop-color="#F2551A" offset=".938"/><stop stop-color="#F2541B" offset=".941"/><stop stop-color="#F2541B" offset=".945"/><stop stop-color="#F2531B" offset=".949"/><stop stop-color="#F2531B" offset=".953"/><stop stop-color="#F2531B" offset=".969"/><stop stop-color="#F1521B" offset=".973"/><stop stop-color="#F1511B" offset=".977"/><stop stop-color="#F1511B" offset=".98"/><stop stop-color="#F1501B" offset=".984"/><stop stop-color="#F1501B" offset="1"/></linearGradient><linearGradient x1="-.253" gradientTransform="matrix(-.00814 -23.20334 -23.1995 .64453 415.935 180.584)" xmlns:xlink="http://www.w3.org/1999/xlink" y1="0" x2=".665" gradientUnits="userSpaceOnUse" y2="0" xlink:type="simple" xlink:actuate="onLoad" id="B" xlink:show="other"><stop stop-color="#F9AA2C" offset="0"/><stop stop-color="#F9AA2C" offset=".25"/><stop stop-color="#F9AA2C" offset=".266"/><stop stop-color="#F9A92C" offset=".281"/><stop stop-color="#F9A92C" offset=".289"/><stop stop-color="#F9A82C" offset=".293"/><stop stop-color="#F9A72B" offset=".297"/><stop stop-color="#F9A72B" offset=".305"/><stop stop-color="#F9A62B" offset=".313"/><stop stop-color="#F9A52B" offset=".32"/><stop stop-color="#F8A52A" offset=".328"/><stop stop-color="#F8A42A" offset=".336"/><stop stop-color="#F8A32A" offset=".344"/><stop stop-color="#F8A32A" offset=".352"/><stop stop-color="#F8A229" offset=".355"/><stop stop-color="#F8A229" offset=".359"/><stop stop-color="#F8A129" offset=".367"/><stop stop-color="#F8A029" offset=".375"/><stop stop-color="#F89F29" offset=".391"/><stop stop-color="#F89F29" offset=".395"/><stop stop-color="#F89E28" offset=".398"/><stop stop-color="#F89E28" offset=".406"/><stop stop-color="#F89D28" offset=".414"/><stop stop-color="#F89C28" offset=".422"/><stop stop-color="#F89C27" offset=".43"/><stop stop-color="#F89B27" offset=".438"/><stop stop-color="#F89A27" offset=".445"/><stop stop-color="#F89927" offset=".453"/><stop stop-color="#F89927" offset=".461"/><stop stop-color="#F79827" offset=".465"/><stop stop-color="#F79826" offset=".469"/><stop stop-color="#F79826" offset=".477"/><stop stop-color="#F79626" offset=".48"/><stop stop-color="#F79626" offset=".484"/><stop stop-color="#F79526" offset=".492"/><stop stop-color="#F79525" offset=".5"/><stop stop-color="#F79425" offset=".508"/><stop stop-color="#F79325" offset=".516"/><stop stop-color="#F79325" offset=".523"/><stop stop-color="#F79224" offset=".531"/><stop stop-color="#F79224" offset=".539"/><stop stop-color="#F79124" offset=".547"/><stop stop-color="#F79023" offset=".555"/><stop stop-color="#F78F23" offset=".563"/><stop stop-color="#F78F23" offset=".566"/><stop stop-color="#F78E23" offset=".57"/><stop stop-color="#F78D23" offset=".578"/><stop stop-color="#F78C22" offset=".594"/><stop stop-color="#F68C22" offset=".602"/><stop stop-color="#F68A22" offset=".605"/><stop stop-color="#F68A22" offset=".609"/><stop stop-color="#F68922" offset=".617"/><stop stop-color="#F68822" offset=".625"/><stop stop-color="#F68721" offset=".641"/><stop stop-color="#F68621" offset=".645"/><stop stop-color="#F68621" offset=".648"/><stop stop-color="#F68521" offset=".656"/><stop stop-color="#F68521" offset=".664"/><stop stop-color="#F68521" offset=".672"/><stop stop-color="#F68420" offset=".68"/><stop stop-color="#F68320" offset=".688"/><stop stop-color="#F68220" offset=".695"/><stop stop-color="#F68120" offset=".703"/><stop stop-color="#F5801F" offset=".711"/><stop stop-color="#F57F1F" offset=".719"/><stop stop-color="#F57F1F" offset=".727"/><stop stop-color="#F57E1F" offset=".73"/><stop stop-color="#F57E1F" offset=".734"/><stop stop-color="#F57D1F" offset=".742"/><stop stop-color="#F57C1F" offset=".75"/><stop stop-color="#F57C1E" offset=".758"/><stop stop-color="#F57B1E" offset=".762"/><stop stop-color="#F57B1E" offset=".766"/><stop stop-color="#F57A1E" offset=".77"/><stop stop-color="#F57A1E" offset=".773"/><stop stop-color="#F5791E" offset=".781"/><stop stop-color="#F5791E" offset=".789"/><stop stop-color="#F5791E" offset=".797"/><stop stop-color="#F5781E" offset=".805"/><stop stop-color="#F5771E" offset=".813"/><stop stop-color="#F5761D" offset=".82"/><stop stop-color="#F5751D" offset=".828"/><stop stop-color="#F4751D" offset=".836"/><stop stop-color="#F4741D" offset=".844"/><stop stop-color="#F4731D" offset=".852"/><stop stop-color="#F4721C" offset=".855"/><stop stop-color="#F4721C" offset=".859"/><stop stop-color="#F4711B" offset=".867"/><stop stop-color="#F4701B" offset=".875"/><stop stop-color="#F46F1B" offset=".879"/><stop stop-color="#F46F1A" offset=".883"/><stop stop-color="#F46E1A" offset=".891"/><stop stop-color="#F46D1A" offset=".895"/><stop stop-color="#F46D1A" offset=".898"/><stop stop-color="#F46D1A" offset=".906"/><stop stop-color="#F46C1A" offset=".914"/><stop stop-color="#F46C1A" offset=".922"/><stop stop-color="#F46B1A" offset=".93"/><stop stop-color="#F46A1A" offset=".938"/><stop stop-color="#F46A19" offset=".941"/><stop stop-color="#F36919" offset=".945"/><stop stop-color="#F36919" offset=".953"/><stop stop-color="#F36819" offset=".961"/><stop stop-color="#F36819" offset=".965"/><stop stop-color="#F36719" offset=".969"/><stop stop-color="#F36719" offset=".977"/><stop stop-color="#F36519" offset=".98"/><stop stop-color="#F36519" offset=".984"/><stop stop-color="#F36519" offset="1"/></linearGradient><linearGradient x1="-.214" gradientTransform="matrix(-.00814 -85.24805 -85.23449 2.36798 570.712 260.176)" xmlns:xlink="http://www.w3.org/1999/xlink" y1="0" x2="1.439" gradientUnits="userSpaceOnUse" y2="0" xlink:type="simple" xlink:actuate="onLoad" id="F" xlink:show="other"><stop stop-color="#F9AA2C" offset="0"/><stop stop-color="#F9AA2C" offset=".125"/><stop stop-color="#F9AA2C" offset=".129"/><stop stop-color="#F9A92C" offset=".133"/><stop stop-color="#F9A92C" offset=".137"/><stop stop-color="#F9A82B" offset=".141"/><stop stop-color="#F9A72B" offset=".145"/><stop stop-color="#F9A62B" offset=".148"/><stop stop-color="#F9A52B" offset=".152"/><stop stop-color="#F9A52B" offset=".156"/><stop stop-color="#F8A42B" offset=".164"/><stop stop-color="#F8A32A" offset=".168"/><stop stop-color="#F8A229" offset=".172"/><stop stop-color="#F8A129" offset=".18"/><stop stop-color="#F8A029" offset=".184"/><stop stop-color="#F89F29" offset=".188"/><stop stop-color="#F89F29" offset=".191"/><stop stop-color="#F89E28" offset=".195"/><stop stop-color="#F89D28" offset=".203"/><stop stop-color="#F89C28" offset=".207"/><stop stop-color="#F89B27" offset=".211"/><stop stop-color="#F89B27" offset=".215"/><stop stop-color="#F89A27" offset=".219"/><stop stop-color="#F89A27" offset=".227"/><stop stop-color="#F89927" offset=".23"/><stop stop-color="#F79826" offset=".234"/><stop stop-color="#F79726" offset=".238"/><stop stop-color="#F79626" offset=".242"/><stop stop-color="#F79525" offset=".246"/><stop stop-color="#F79525" offset=".25"/><stop stop-color="#F79425" offset=".258"/><stop stop-color="#F79325" offset=".262"/><stop stop-color="#F79225" offset=".266"/><stop stop-color="#F79224" offset=".27"/><stop stop-color="#F79124" offset=".273"/><stop stop-color="#F79024" offset=".281"/><stop stop-color="#F78F23" offset=".285"/><stop stop-color="#F78E23" offset=".289"/><stop stop-color="#F78E23" offset=".293"/><stop stop-color="#F68D23" offset=".297"/><stop stop-color="#F68C22" offset=".301"/><stop stop-color="#F68B22" offset=".305"/><stop stop-color="#F68A22" offset=".313"/><stop stop-color="#F68922" offset=".316"/><stop stop-color="#F68922" offset=".32"/><stop stop-color="#F68822" offset=".324"/><stop stop-color="#F68722" offset=".328"/><stop stop-color="#F68621" offset=".332"/><stop stop-color="#F68621" offset=".336"/><stop stop-color="#F68521" offset=".344"/><stop stop-color="#F68420" offset=".348"/><stop stop-color="#F68320" offset=".352"/><stop stop-color="#F68320" offset=".355"/><stop stop-color="#F68220" offset=".359"/><stop stop-color="#F68120" offset=".363"/><stop stop-color="#F58120" offset=".367"/><stop stop-color="#F5801F" offset=".371"/><stop stop-color="#F57F1F" offset=".375"/><stop stop-color="#F57E1F" offset=".379"/><stop stop-color="#F57E1F" offset=".383"/><stop stop-color="#F57D1F" offset=".387"/><stop stop-color="#F57C1E" offset=".391"/><stop stop-color="#F57B1E" offset=".395"/><stop stop-color="#F57B1E" offset=".398"/><stop stop-color="#F57A1E" offset=".406"/><stop stop-color="#F5791E" offset=".41"/><stop stop-color="#F5781E" offset=".414"/><stop stop-color="#F5781E" offset=".418"/><stop stop-color="#F5771E" offset=".422"/><stop stop-color="#F5771E" offset=".426"/><stop stop-color="#F5761D" offset=".43"/><stop stop-color="#F5751D" offset=".434"/><stop stop-color="#F4741D" offset=".438"/><stop stop-color="#F4731D" offset=".441"/><stop stop-color="#F4731D" offset=".445"/><stop stop-color="#F4721C" offset=".453"/><stop stop-color="#F4711B" offset=".457"/><stop stop-color="#F4701B" offset=".461"/><stop stop-color="#F46F1B" offset=".465"/><stop stop-color="#F46E1A" offset=".469"/><stop stop-color="#F46D1A" offset=".477"/><stop stop-color="#F46C1A" offset=".484"/><stop stop-color="#F46B19" offset=".488"/><stop stop-color="#F46A19" offset=".492"/><stop stop-color="#F46A19" offset=".496"/><stop stop-color="#F36919" offset=".5"/><stop stop-color="#F36919" offset=".508"/><stop stop-color="#F36719" offset=".512"/><stop stop-color="#F36619" offset=".516"/><stop stop-color="#F36619" offset=".52"/><stop stop-color="#F36519" offset=".523"/><stop stop-color="#F36519" offset=".531"/><stop stop-color="#F36419" offset=".535"/><stop stop-color="#F36319" offset=".539"/><stop stop-color="#F36219" offset=".543"/><stop stop-color="#F36219" offset=".547"/><stop stop-color="#F36118" offset=".551"/><stop stop-color="#F36118" offset=".555"/><stop stop-color="#F36018" offset=".563"/><stop stop-color="#F36019" offset=".57"/><stop stop-color="#F35F19" offset=".574"/><stop stop-color="#F35E19" offset=".578"/><stop stop-color="#F25E19" offset=".586"/><stop stop-color="#F25C19" offset=".59"/><stop stop-color="#F25B19" offset=".594"/><stop stop-color="#F25B19" offset=".602"/><stop stop-color="#F2591A" offset=".605"/><stop stop-color="#F2581A" offset=".609"/><stop stop-color="#F2571A" offset=".613"/><stop stop-color="#F2571A" offset=".617"/><stop stop-color="#F2561A" offset=".621"/><stop stop-color="#F2561A" offset=".625"/><stop stop-color="#F2551A" offset=".633"/><stop stop-color="#F2541A" offset=".641"/><stop stop-color="#F2531B" offset=".645"/><stop stop-color="#F2531B" offset=".648"/><stop stop-color="#F2521B" offset=".656"/><stop stop-color="#F1521B" offset=".664"/><stop stop-color="#F1511B" offset=".672"/><stop stop-color="#F1501B" offset=".676"/><stop stop-color="#F14F1B" offset=".68"/><stop stop-color="#F14E1C" offset=".684"/><stop stop-color="#F14D1C" offset=".688"/><stop stop-color="#F14D1C" offset=".695"/><stop stop-color="#F14C1C" offset=".699"/><stop stop-color="#F14B1C" offset=".703"/><stop stop-color="#F14B1C" offset=".711"/><stop stop-color="#F14A1C" offset=".715"/><stop stop-color="#F14A1C" offset=".719"/><stop stop-color="#F1491D" offset=".723"/><stop stop-color="#F1481D" offset=".727"/><stop stop-color="#F1481D" offset=".734"/><stop stop-color="#F1481D" offset=".75"/><stop stop-color="#F1481D" offset="1"/></linearGradient><linearGradient x1="-.875" gradientTransform="matrix(-.00814 -28.0777 -28.0731 .77993 626.683 369.038)" xmlns:xlink="http://www.w3.org/1999/xlink" y1="0" x2=".243" gradientUnits="userSpaceOnUse" y2="0" xlink:type="simple" xlink:actuate="onLoad" id="J" xlink:show="other"><stop stop-color="#F9AA2C" offset="0"/><stop stop-color="#F9AA2C" offset=".5"/><stop stop-color="#F9AA2C" offset=".75"/><stop stop-color="#F9AA2C" offset=".781"/><stop stop-color="#F9AA2C" offset=".785"/><stop stop-color="#F9A92C" offset=".789"/><stop stop-color="#F9A92C" offset=".793"/><stop stop-color="#F9A82B" offset=".797"/><stop stop-color="#F9A82B" offset=".801"/><stop stop-color="#F9A72B" offset=".805"/><stop stop-color="#F9A62B" offset=".809"/><stop stop-color="#F9A52B" offset=".813"/><stop stop-color="#F8A52B" offset=".82"/><stop stop-color="#F8A42B" offset=".828"/><stop stop-color="#F8A32A" offset=".832"/><stop stop-color="#F8A32A" offset=".836"/><stop stop-color="#F8A22A" offset=".844"/><stop stop-color="#F8A22A" offset=".852"/><stop stop-color="#F8A02A" offset=".855"/><stop stop-color="#F8A029" offset=".859"/><stop stop-color="#F89F29" offset=".875"/><stop stop-color="#F89F29" offset=".879"/><stop stop-color="#F89E28" offset=".883"/><stop stop-color="#F89E28" offset=".887"/><stop stop-color="#F89D28" offset=".891"/><stop stop-color="#F89D28" offset=".895"/><stop stop-color="#F89C27" offset=".898"/><stop stop-color="#F89B27" offset=".906"/><stop stop-color="#F89B27" offset=".922"/><stop stop-color="#F89A27" offset=".93"/><stop stop-color="#F89927" offset=".934"/><stop stop-color="#F79826" offset=".938"/><stop stop-color="#F79726" offset=".941"/><stop stop-color="#F79726" offset=".945"/><stop stop-color="#F79626" offset=".953"/><stop stop-color="#F79525" offset=".961"/><stop stop-color="#F79425" offset=".969"/><stop stop-color="#F79325" offset=".977"/><stop stop-color="#F79324" offset=".98"/><stop stop-color="#F79224" offset=".984"/><stop stop-color="#F79224" offset=".988"/><stop stop-color="#F79124" offset=".992"/><stop stop-color="#F79124" offset="1"/></linearGradient><linearGradient x1="-.378" gradientTransform="matrix(-.00814 -87.4886 -87.47469 2.43025 445.99 462.506)" xmlns:xlink="http://www.w3.org/1999/xlink" y1="0" x2=".727" gradientUnits="userSpaceOnUse" y2="0" xlink:type="simple" xlink:actuate="onLoad" id="N" xlink:show="other"><stop stop-color="#FBF189" offset="0"/><stop stop-color="#FBF189" offset=".25"/><stop stop-color="#FBF189" offset=".313"/><stop stop-color="#FBF189" offset=".344"/><stop stop-color="#FBF188" offset=".348"/><stop stop-color="#FBF187" offset=".352"/><stop stop-color="#FBF186" offset=".355"/><stop stop-color="#FBF185" offset=".359"/><stop stop-color="#FBF084" offset=".363"/><stop stop-color="#FBF083" offset=".367"/><stop stop-color="#FBF082" offset=".371"/><stop stop-color="#FBF081" offset=".375"/><stop stop-color="#FBF081" offset=".379"/><stop stop-color="#FBF080" offset=".383"/><stop stop-color="#FBF07F" offset=".387"/><stop stop-color="#FBF07E" offset=".391"/><stop stop-color="#FBEF7D" offset=".395"/><stop stop-color="#FBEF7C" offset=".398"/><stop stop-color="#FBEF7B" offset=".402"/><stop stop-color="#FBEF7A" offset=".406"/><stop stop-color="#FBEF79" offset=".41"/><stop stop-color="#FBEF78" offset=".414"/><stop stop-color="#FBEF78" offset=".418"/><stop stop-color="#FBEF77" offset=".422"/><stop stop-color="#FBEF76" offset=".426"/><stop stop-color="#FBEF75" offset=".43"/><stop stop-color="#FBEF74" offset=".434"/><stop stop-color="#FBEF73" offset=".438"/><stop stop-color="#FAEE72" offset=".441"/><stop stop-color="#FAEE71" offset=".445"/><stop stop-color="#FAEE70" offset=".449"/><stop stop-color="#FAEE6F" offset=".453"/><stop stop-color="#FAEE6E" offset=".457"/><stop stop-color="#FAEE6E" offset=".461"/><stop stop-color="#FAED6D" offset=".465"/><stop stop-color="#FAED6C" offset=".469"/><stop stop-color="#FAED6C" offset=".473"/><stop stop-color="#FAED6B" offset=".477"/><stop stop-color="#FAED6B" offset=".48"/><stop stop-color="#FAED6A" offset=".484"/><stop stop-color="#FAED69" offset=".488"/><stop stop-color="#FAED68" offset=".492"/><stop stop-color="#FAED68" offset=".5"/><stop stop-color="#FAED66" offset=".504"/><stop stop-color="#FAED65" offset=".508"/><stop stop-color="#FAED64" offset=".512"/><stop stop-color="#FAED64" offset=".516"/><stop stop-color="#FAED63" offset=".52"/><stop stop-color="#FAED62" offset=".523"/><stop stop-color="#FAED61" offset=".527"/><stop stop-color="#FAED60" offset=".531"/><stop stop-color="#FAED5F" offset=".539"/><stop stop-color="#FAEC5E" offset=".543"/><stop stop-color="#FAEC5D" offset=".547"/><stop stop-color="#FAEC5D" offset=".551"/><stop stop-color="#FAEC5C" offset=".555"/><stop stop-color="#FAEC5B" offset=".559"/><stop stop-color="#FAEC5A" offset=".563"/><stop stop-color="#FAEC59" offset=".566"/><stop stop-color="#FAEC58" offset=".57"/><stop stop-color="#FAEB57" offset=".574"/><stop stop-color="#FAEB57" offset=".578"/><stop stop-color="#FAEB56" offset=".582"/><stop stop-color="#FAEB56" offset=".586"/><stop stop-color="#FAEB55" offset=".59"/><stop stop-color="#FAEB55" offset=".594"/><stop stop-color="#FAEB54" offset=".598"/><stop stop-color="#FAEB53" offset=".602"/><stop stop-color="#FAEB52" offset=".605"/><stop stop-color="#FAEB51" offset=".609"/><stop stop-color="#FAEB51" offset=".613"/><stop stop-color="#FAEA50" offset=".617"/><stop stop-color="#FAEA4F" offset=".621"/><stop stop-color="#FAEA4E" offset=".625"/><stop stop-color="#FAEA4E" offset=".629"/><stop stop-color="#FAEA4D" offset=".633"/><stop stop-color="#FAEA4C" offset=".637"/><stop stop-color="#FAEA4B" offset=".641"/><stop stop-color="#FAEA4A" offset=".645"/><stop stop-color="#FAEA4A" offset=".648"/><stop stop-color="#FAEA49" offset=".656"/><stop stop-color="#FAEA48" offset=".664"/><stop stop-color="#FAEA47" offset=".668"/><stop stop-color="#FAE947" offset=".672"/><stop stop-color="#FAE946" offset=".676"/><stop stop-color="#FAE945" offset=".68"/><stop stop-color="#FAE945" offset=".684"/><stop stop-color="#FAE944" offset=".688"/><stop stop-color="#FAE943" offset=".691"/><stop stop-color="#FAE942" offset=".695"/><stop stop-color="#FAE941" offset=".699"/><stop stop-color="#FAE940" offset=".703"/><stop stop-color="#FAE940" offset=".711"/><stop stop-color="#FAE93F" offset=".715"/><stop stop-color="#FAE83E" offset=".719"/><stop stop-color="#F9E83E" offset=".727"/><stop stop-color="#F9E83D" offset=".73"/><stop stop-color="#F9E73C" offset=".734"/><stop stop-color="#F9E73B" offset=".742"/><stop stop-color="#F9E73A" offset=".746"/><stop stop-color="#F9E739" offset=".75"/><stop stop-color="#F9E739" offset=".758"/><stop stop-color="#F9E738" offset=".766"/><stop stop-color="#F9E737" offset=".77"/><stop stop-color="#F9E736" offset=".773"/><stop stop-color="#F9E736" offset=".777"/><stop stop-color="#F9E735" offset=".781"/><stop stop-color="#F9E735" offset=".785"/><stop stop-color="#F9E734" offset=".789"/><stop stop-color="#F9E734" offset=".793"/><stop stop-color="#F9E633" offset=".797"/><stop stop-color="#F9E632" offset=".801"/><stop stop-color="#F9E631" offset=".805"/><stop stop-color="#F9E631" offset=".813"/><stop stop-color="#F9E630" offset=".82"/><stop stop-color="#F9E62F" offset=".828"/><stop stop-color="#F9E62E" offset=".836"/><stop stop-color="#F9E52D" offset=".84"/><stop stop-color="#F9E52D" offset=".844"/><stop stop-color="#F9E52D" offset=".852"/><stop stop-color="#F9E52C" offset=".855"/><stop stop-color="#F9E52B" offset=".859"/><stop stop-color="#F9E52B" offset=".867"/><stop stop-color="#F9E52A" offset=".875"/><stop stop-color="#F9E429" offset=".879"/><stop stop-color="#F9E428" offset=".883"/><stop stop-color="#F9E428" offset=".887"/><stop stop-color="#F9E427" offset=".891"/><stop stop-color="#F9E426" offset=".895"/><stop stop-color="#F9E425" offset=".898"/><stop stop-color="#F9E424" offset=".906"/><stop stop-color="#F9E423" offset=".914"/><stop stop-color="#F9E322" offset=".918"/><stop stop-color="#F9E322" offset=".922"/><stop stop-color="#F9E321" offset=".926"/><stop stop-color="#F9E321" offset=".93"/><stop stop-color="#F9E320" offset=".934"/><stop stop-color="#F9E31F" offset=".938"/><stop stop-color="#F9E31F" offset=".941"/><stop stop-color="#F9E31E" offset=".945"/><stop stop-color="#F9E31E" offset=".953"/><stop stop-color="#F9E21D" offset=".957"/><stop stop-color="#F9E21C" offset=".961"/><stop stop-color="#F9E21C" offset=".965"/><stop stop-color="#F9E21B" offset=".969"/><stop stop-color="#F9E21B" offset=".973"/><stop stop-color="#F9E21A" offset=".977"/><stop stop-color="#F9E219" offset=".98"/><stop stop-color="#F9E219" offset=".984"/><stop stop-color="#F9E218" offset=".992"/><stop stop-color="#F9E117" offset="1"/></linearGradient><linearGradient x1="-.413" gradientTransform="matrix(-.00814 -68.7701 -68.7591 1.91028 441.314 462.422)" xmlns:xlink="http://www.w3.org/1999/xlink" y1="0" x2=".64" gradientUnits="userSpaceOnUse" y2="0" xlink:type="simple" xlink:actuate="onLoad" id="R" xlink:show="other"><stop stop-color="#F9FABB" offset="0"/><stop stop-color="#F9FABB" offset=".25"/><stop stop-color="#F9FABB" offset=".375"/><stop stop-color="#F9FABB" offset=".391"/><stop stop-color="#F9FABA" offset=".395"/><stop stop-color="#F9FABA" offset=".398"/><stop stop-color="#F9FAB9" offset=".402"/><stop stop-color="#F9FAB9" offset=".406"/><stop stop-color="#F9F9B8" offset=".41"/><stop stop-color="#F9F9B7" offset=".414"/><stop stop-color="#F9F9B7" offset=".422"/><stop stop-color="#F9F9B6" offset=".426"/><stop stop-color="#F8F9B5" offset=".43"/><stop stop-color="#F8F9B4" offset=".434"/><stop stop-color="#F8F9B3" offset=".438"/><stop stop-color="#F8F9B2" offset=".441"/><stop stop-color="#F8F9B1" offset=".445"/><stop stop-color="#F8F9B1" offset=".453"/><stop stop-color="#F8F9AF" offset=".457"/><stop stop-color="#F8F9AE" offset=".461"/><stop stop-color="#F8F9AE" offset=".469"/><stop stop-color="#F8F9AD" offset=".473"/><stop stop-color="#F8F9AC" offset=".477"/><stop stop-color="#F8F9AC" offset=".48"/><stop stop-color="#F8F9AB" offset=".484"/><stop stop-color="#F8F8AA" offset=".488"/><stop stop-color="#F8F8A9" offset=".492"/><stop stop-color="#F8F8A8" offset=".496"/><stop stop-color="#F8F8A7" offset=".5"/><stop stop-color="#F8F8A6" offset=".504"/><stop stop-color="#F8F8A5" offset=".508"/><stop stop-color="#F8F8A5" offset=".516"/><stop stop-color="#F8F8A4" offset=".52"/><stop stop-color="#F7F8A3" offset=".523"/><stop stop-color="#F7F8A2" offset=".527"/><stop stop-color="#F7F8A1" offset=".531"/><stop stop-color="#F7F8A0" offset=".539"/><stop stop-color="#F7F89F" offset=".543"/><stop stop-color="#F7F89E" offset=".547"/><stop stop-color="#F7F89E" offset=".551"/><stop stop-color="#F7F79D" offset=".555"/><stop stop-color="#F7F79D" offset=".559"/><stop stop-color="#F7F79C" offset=".563"/><stop stop-color="#F7F79B" offset=".566"/><stop stop-color="#F7F79A" offset=".57"/><stop stop-color="#F7F79A" offset=".578"/><stop stop-color="#F7F798" offset=".582"/><stop stop-color="#F7F797" offset=".586"/><stop stop-color="#F7F796" offset=".59"/><stop stop-color="#F7F796" offset=".594"/><stop stop-color="#F7F795" offset=".598"/><stop stop-color="#F7F795" offset=".602"/><stop stop-color="#F7F794" offset=".605"/><stop stop-color="#F7F794" offset=".609"/><stop stop-color="#F7F793" offset=".613"/><stop stop-color="#F7F792" offset=".617"/><stop stop-color="#F7F792" offset=".625"/><stop stop-color="#F7F790" offset=".629"/><stop stop-color="#F7F78F" offset=".633"/><stop stop-color="#F7F78F" offset=".637"/><stop stop-color="#F7F78E" offset=".641"/><stop stop-color="#F7F78D" offset=".645"/><stop stop-color="#F7F78C" offset=".648"/><stop stop-color="#F7F78B" offset=".652"/><stop stop-color="#F6F68B" offset=".656"/><stop stop-color="#F6F68A" offset=".66"/><stop stop-color="#F6F689" offset=".664"/><stop stop-color="#F6F688" offset=".668"/><stop stop-color="#F6F688" offset=".672"/><stop stop-color="#F6F687" offset=".676"/><stop stop-color="#F6F686" offset=".68"/><stop stop-color="#F6F686" offset=".688"/><stop stop-color="#F6F685" offset=".691"/><stop stop-color="#F6F684" offset=".695"/><stop stop-color="#F6F683" offset=".703"/><stop stop-color="#F6F682" offset=".707"/><stop stop-color="#F6F682" offset=".711"/><stop stop-color="#F6F681" offset=".715"/><stop stop-color="#F6F680" offset=".719"/><stop stop-color="#F6F680" offset=".727"/><stop stop-color="#F6F67F" offset=".734"/><stop stop-color="#F6F67E" offset=".742"/><stop stop-color="#F6F67D" offset=".75"/><stop stop-color="#F6F67D" offset=".758"/><stop stop-color="#F6F57C" offset=".766"/><stop stop-color="#F6F57B" offset=".77"/><stop stop-color="#F6F57B" offset=".773"/><stop stop-color="#F6F57A" offset=".777"/><stop stop-color="#F6F57A" offset=".781"/><stop stop-color="#F6F578" offset=".785"/><stop stop-color="#F6F577" offset=".789"/><stop stop-color="#F6F577" offset=".797"/><stop stop-color="#F6F576" offset=".801"/><stop stop-color="#F6F575" offset=".805"/><stop stop-color="#F6F575" offset=".809"/><stop stop-color="#F5F574" offset=".813"/><stop stop-color="#F5F573" offset=".816"/><stop stop-color="#F5F572" offset=".82"/><stop stop-color="#F5F571" offset=".824"/><stop stop-color="#F5F571" offset=".828"/><stop stop-color="#F5F570" offset=".836"/><stop stop-color="#F5F56F" offset=".844"/><stop stop-color="#F5F56F" offset=".852"/><stop stop-color="#F5F46E" offset=".855"/><stop stop-color="#F5F46E" offset=".859"/><stop stop-color="#F5F46D" offset=".867"/><stop stop-color="#F5F46C" offset=".875"/><stop stop-color="#F5F46C" offset=".879"/><stop stop-color="#F5F46B" offset=".883"/><stop stop-color="#F5F46A" offset=".887"/><stop stop-color="#F5F469" offset=".891"/><stop stop-color="#F5F468" offset=".895"/><stop stop-color="#F5F468" offset=".898"/><stop stop-color="#F5F467" offset=".902"/><stop stop-color="#F5F467" offset=".906"/><stop stop-color="#F5F466" offset=".91"/><stop stop-color="#F5F465" offset=".914"/><stop stop-color="#F5F464" offset=".922"/><stop stop-color="#F5F463" offset=".938"/><stop stop-color="#F5F462" offset=".941"/><stop stop-color="#F5F462" offset=".945"/><stop stop-color="#F5F461" offset=".953"/><stop stop-color="#F5F460" offset=".961"/><stop stop-color="#F5F45F" offset=".969"/><stop stop-color="#F5F45F" offset=".977"/><stop stop-color="#F5F45F" offset=".98"/><stop stop-color="#F5F45E" offset=".984"/><stop stop-color="#F5F45E" offset=".992"/><stop stop-color="#F5F45D" offset="1"/></linearGradient></defs><g clip-path="url(#a)"><g clip-path="url(#b)"><g clip-path="url(#c)"><path fill="url(#d)" d="M 307.320312 80.167969 L 285.480469 80.773438 L 285.472656 59.28125 L 307.3125 58.675781 Z M 307.320312 80.167969"/></g></g></g><g clip-path="url(#e)"><g clip-path="url(#f)"><g clip-path="url(#g)"><path fill="url(#h)" d="M 774.054688 469.191406 L 66.601562 488.847656 L 66.59375 0.0117188 L 774.046875 -19.644531 Z M 774.054688 469.191406"/></g></g></g><g clip-path="url(#i)"><g clip-path="url(#j)"><g clip-path="url(#k)"><path fill="url(#l)" d="M 771.554688 493.609375 L 146.203125 510.980469 L 146.191406 186.785156 L 771.546875 169.414062 Z M 771.554688 493.609375"/></g></g></g><path fill="#EDC60B" d="M 715.542969 349.554688 C 715.542969 351.726562 716.210938 353.488281 717.566406 354.847656 C 719.738281 356.195312 721.777344 356.871094 723.675781 356.871094 C 726.378906 356.058594 728.414062 354.847656 729.785156 353.21875 C 731.402344 351.589844 732.214844 349.554688 732.214844 347.109375 C 732.214844 344.664062 731.402344 342.902344 729.785156 341.824219 C 728.414062 340.46875 726.378906 340.0625 723.675781 340.605469 C 721.777344 340.875 719.738281 341.824219 717.566406 343.453125 C 716.210938 345.074219 715.542969 347.109375 715.542969 349.554688 Z M 182.546875 171.726562 C 192.578125 163.59375 196.652344 156.804688 194.761719 151.386719 C 194.21875 150.027344 193.527344 148.941406 192.726562 148.128906 C 190.28125 143.78125 186.210938 139.992188 180.519531 136.734375 C 180.519531 137.550781 180.519531 138.488281 180.519531 139.574219 C 180.519531 147.992188 180.65625 156.261719 180.929688 164.40625 C 182.546875 166.578125 183.101562 169.011719 182.546875 171.726562" fill-rule="evenodd"/><g clip-path="url(#m)"><g clip-path="url(#n)"><g clip-path="url(#o)"><path fill="url(#p)" d="M 249.074219 381.296875 L 175.632812 383.339844 L 175.628906 290.960938 L 249.070312 288.921875 Z M 249.074219 381.296875"/></g></g></g><g clip-path="url(#q)"><g clip-path="url(#r)"><g clip-path="url(#s)"><path fill="url(#t)" d="M 750.125 303.574219 L 732.214844 304.074219 L 732.214844 271.015625 L 750.121094 270.515625 Z M 750.125 303.574219"/></g></g></g><g clip-path="url(#u)"><g clip-path="url(#v)"><g clip-path="url(#w)"><path fill="url(#x)" d="M 436.300781 270.605469 L 391.8125 271.84375 L 391.804688 195.734375 L 436.289062 194.5 Z M 436.300781 270.605469"/></g></g></g><g clip-path="url(#y)"><g clip-path="url(#z)"><g clip-path="url(#A)"><path fill="url(#B)" d="M 418.808594 186.378906 L 413.238281 186.53125 L 413.230469 165.222656 L 418.800781 165.066406 Z M 418.808594 186.378906"/></g></g></g><g clip-path="url(#C)"><g clip-path="url(#D)"><g clip-path="url(#E)"><path fill="url(#F)" d="M 588.730469 277.9375 L 555.234375 278.867188 L 555.21875 137.957031 L 588.714844 137.027344 Z M 588.730469 277.9375"/></g></g></g><g clip-path="url(#G)"><g clip-path="url(#H)"><g clip-path="url(#I)"><path fill="url(#J)" d="M 634.855469 393.371094 L 618.703125 393.820312 L 618.695312 362.4375 L 634.84375 361.992188 Z M 634.855469 393.371094"/></g></g></g><g clip-path="url(#K)"><g clip-path="url(#L)"><g clip-path="url(#M)"><path fill="url(#N)" d="M 514.960938 493.652344 L 377.027344 497.484375 L 377.019531 400.824219 L 514.953125 396.992188 Z M 514.960938 493.652344"/></g></g></g><g clip-path="url(#O)"><g clip-path="url(#P)"><g clip-path="url(#Q)"><path fill="url(#R)" d="M 466.140625 490.144531 L 416.496094 491.523438 L 416.484375 419.132812 L 466.128906 417.75 Z M 466.140625 490.144531"/></g></g></g><path fill="#D31D2C" d="M 224.046875 434.597656 C 223.789062 430.34375 223.855469 426.550781 224.25 423.203125 C 225.871094 408.484375 233.539062 401.777344 247.238281 403.066406 C 253.121094 403.652344 260.167969 405.746094 268.402344 409.367188 C 274.398438 412.253906 287.210938 422.21875 306.851562 439.28125 C 309.351562 441.554688 311.984375 443.929688 314.78125 446.394531 C 339.191406 468.378906 357.355469 482.078125 369.300781 487.5 C 427.34375 513 506.003906 516.121094 605.277344 496.867188 C 609.210938 496.128906 613.339844 495.316406 617.683594 494.421875 C 640.511719 489.714844 668.382812 482.816406 701.300781 473.660156 C 728.699219 466.34375 743.742188 463.355469 746.457031 464.714844 C 749.171875 465.527344 750.53125 466.207031 750.53125 466.75 C 750.53125 467.292969 750.121094 468.515625 749.308594 470.402344 C 748.164062 470.855469 747.011719 471.253906 745.847656 471.625 C 679.3125 497.195312 608.046875 511.980469 532.042969 515.984375 C 454.46875 520.332031 392.355469 512.320312 345.695312 491.980469 C 340.277344 489.535156 331.601562 483.84375 319.667969 474.882812 C 307.179688 466.207031 298.367188 460.640625 293.207031 458.207031 C 289.960938 456.839844 283.039062 451.828125 272.460938 443.148438 C 262.429688 435.003906 257.28125 430.804688 257.011719 430.535156 C 254.023438 429.175781 249.136719 429.585938 242.363281 431.757812 C 234.5 434.730469 228.390625 435.683594 224.046875 434.597656 Z M 382.320312 459.417969 C 371.6875 452.652344 357.582031 443.433594 340.003906 431.757812 C 300.402344 405.714844 279.25 392.148438 276.535156 391.0625 C 265.742188 386.402344 256.59375 383.144531 249.070312 381.296875 C 246.988281 380.777344 245.019531 380.371094 243.175781 380.078125 C 237.035156 379.171875 231.003906 379.441406 225.066406 380.890625 C 221.59375 381.839844 218.132812 383.199219 214.691406 384.953125 C 213.472656 385.574219 212.25 386.253906 211.027344 386.988281 C 209.398438 388.074219 207.5 389.296875 205.339844 390.65625 C 204.988281 392.871094 204.582031 395.179688 204.117188 397.566406 C 203.246094 402.828125 202.160156 408.53125 200.859375 414.664062 C 200.417969 417.378906 200.078125 420.160156 199.839844 423 C 199.058594 432.140625 199.398438 441.703125 200.859375 451.691406 C 201.128906 464.984375 195.429688 482.757812 183.765625 505 C 178.890625 513.679688 168.574219 523.304688 152.851562 533.882812 C 141.734375 541.757812 132.230469 550.976562 124.367188 561.554688 C 126.539062 564.816406 129.121094 568.207031 132.09375 571.726562 C 136.710938 567.121094 141.867188 562.234375 147.558594 557.085938 C 164.105469 544.066406 181.1875 534.835938 198.824219 529.414062 C 218.890625 523.441406 236.117188 523.578125 250.496094 529.820312 C 261.613281 534.710938 277.890625 539.585938 299.316406 544.472656 C 308.265625 545.289062 320.886719 547.175781 337.164062 550.164062 C 357.503906 553.964844 377.300781 557.085938 396.5625 559.519531 C 415.816406 562.234375 460.847656 566.308594 531.636719 571.726562 C 602.425781 576.886719 657.355469 570.246094 696.414062 551.792969 C 735.203125 533.339844 760.292969 523.304688 771.683594 521.675781 C 773.855469 518.699219 776.027344 515.578125 778.1875 512.320312 C 789.046875 490.890625 791.34375 473.117188 785.109375 459.011719 C 781.738281 450.730469 776.796875 444.890625 770.257812 441.519531 C 769.894531 441.382812 769.554688 441.261719 769.238281 441.113281 C 768.152344 440.570312 754.195312 444.632812 727.328125 453.320312 C 692.613281 464.171875 661.699219 472.574219 634.574219 478.550781 C 589.914062 488.585938 549.632812 493.609375 513.730469 493.609375 C 495.878906 493.652344 479.128906 492.5 463.484375 490.144531 C 447.976562 487.714844 433.53125 484.117188 420.160156 479.363281 C 415.273438 477.621094 410.523438 475.722656 405.917969 473.660156 C 403.496094 472.757812 395.636719 468.015625 382.320312 459.417969" fill-rule="evenodd"/><path fill="#F14C1C" d="M 224.046875 434.597656 C 228.390625 435.683594 234.5 434.730469 242.363281 431.757812 C 249.136719 429.585938 254.023438 429.175781 257.011719 430.535156 C 257.28125 430.804688 262.429688 435.003906 272.460938 443.148438 C 283.039062 451.828125 289.960938 456.839844 293.207031 458.207031 C 298.367188 460.640625 307.179688 466.207031 319.667969 474.882812 C 331.601562 483.84375 340.277344 489.535156 345.695312 491.980469 C 392.355469 512.320312 454.46875 520.332031 532.042969 515.984375 C 608.046875 511.980469 679.3125 497.195312 745.847656 471.625 C 747.011719 471.253906 748.164062 470.855469 749.308594 470.402344 C 750.121094 468.515625 750.53125 467.292969 750.53125 466.75 C 750.53125 466.207031 749.171875 465.527344 746.457031 464.714844 C 743.742188 463.355469 728.699219 466.34375 701.300781 473.660156 C 668.382812 482.816406 640.511719 489.714844 617.683594 494.421875 C 613.339844 495.316406 609.210938 496.128906 605.277344 496.867188 C 506.003906 516.121094 427.34375 513 369.300781 487.5 C 357.355469 482.078125 339.191406 468.378906 314.78125 446.394531 C 311.984375 443.929688 309.351562 441.554688 306.851562 439.28125 C 287.210938 422.21875 274.398438 412.253906 268.402344 409.367188 C 260.167969 405.746094 253.121094 403.652344 247.238281 403.066406 C 233.539062 401.777344 225.871094 408.484375 224.25 423.203125 C 223.855469 426.550781 223.789062 430.34375 224.046875 434.597656" fill-rule="evenodd"/><g clip-path="url(#S)"><path fill="#246731" d="M 169.332031 425.851562 C 169.570312 426.066406 169.773438 426.269531 169.945312 426.460938 C 173.191406 430.535156 173.054688 435.816406 169.527344 442.335938 C 161.933594 456.714844 145.941406 464.578125 121.519531 465.933594 C 103.882812 466.75 91.148438 465.390625 83.273438 461.863281 C 81.351562 461.046875 79.109375 459.691406 76.566406 457.789062 C 73.363281 455.457031 69.710938 452.335938 65.582031 448.433594 C 60.414062 443.679688 54.519531 437.71875 47.878906 430.535156 C 31.875 413.984375 21.839844 401.777344 17.777344 393.902344 L 19.394531 391.0625 C 20.210938 391.605469 20.890625 391.742188 21.433594 391.46875 C 22.246094 391.46875 23.738281 392.011719 25.910156 393.097656 C 27.269531 393.902344 34.722656 402.589844 48.285156 419.132812 C 54.722656 426.734375 60.617188 433.046875 65.988281 438.058594 C 72.957031 444.710938 78.996094 449.121094 84.089844 451.285156 C 85.117188 451.703125 86.40625 451.839844 87.957031 451.691406 C 94.03125 451.316406 104.054688 447.042969 118.070312 438.871094 C 119.425781 438.011719 120.851562 437.128906 122.332031 436.226562 C 142.332031 424.425781 155.691406 419.550781 162.410156 421.574219 C 162.738281 421.6875 163.089844 421.824219 163.429688 421.980469 C 166.054688 423.179688 168.019531 424.472656 169.332031 425.851562 Z M 100.570312 445.785156 C 100.230469 446.125 99.890625 446.464844 99.550781 446.804688 C 99.300781 446.757812 99.03125 446.691406 98.738281 446.601562 C 95.128906 445.875 92.695312 445.128906 91.417969 444.371094 C 83.183594 440.761719 74.902344 434.460938 66.601562 425.445312 C 61.714844 420.171875 56.828125 414.007812 51.953125 406.921875 C 37.574219 387.398438 29.835938 377.484375 28.761719 377.226562 C 14.113281 370.71875 5.15625 370.71875 1.910156 377.226562 C -1.078125 383.460938 0.824219 393.640625 7.597656 407.738281 C 14.113281 421.574219 23.46875 434.867188 35.671875 447.617188 C 48.964844 461.996094 62.257812 472.167969 75.546875 478.140625 C 76.90625 478.957031 78.261719 479.5 79.609375 479.769531 C 79.347656 483.289062 78.941406 487.089844 78.386719 491.164062 C 77.855469 502.554688 78.804688 512.726562 81.25 521.675781 C 84.496094 531.710938 88.839844 538.09375 94.269531 540.808594 C 95.613281 541.351562 97.378906 541.894531 99.550781 542.4375 C 100.367188 542.980469 101.453125 543.386719 102.808594 543.660156 C 105.785156 545.289062 110.261719 544.609375 116.234375 541.621094 C 121.113281 539.179688 126.949219 535.648438 133.734375 531.042969 C 150.273438 518.566406 162.75 504.457031 171.15625 488.71875 C 185.847656 461.464844 192.023438 439.765625 189.671875 423.609375 C 189.570312 423.316406 189.511719 423.046875 189.46875 422.796875 C 189.195312 419.265625 188.519531 416.292969 187.433594 413.847656 C 185.871094 409.175781 183.304688 405.847656 179.707031 403.878906 L 179.289062 403.675781 C 173.871094 401.234375 170.070312 401.777344 167.90625 405.304688 C 167.363281 405.578125 167.082031 405.972656 167.082031 406.527344 C 162.476562 407.058594 156.234375 409.367188 148.371094 413.441406 C 136.980469 418.316406 125.320312 425.648438 113.386719 435.410156 C 108.441406 438.871094 104.175781 442.324219 100.570312 445.785156" fill-rule="evenodd"/></g><g clip-path="url(#T)"><path fill="#951546" d="M 771.683594 521.675781 C 760.292969 523.304688 735.203125 533.339844 696.414062 551.792969 C 657.355469 570.246094 602.425781 576.886719 531.636719 571.726562 C 460.847656 566.308594 415.816406 562.234375 396.5625 559.519531 C 377.300781 557.085938 357.503906 553.964844 337.164062 550.164062 C 320.886719 547.175781 308.265625 545.289062 299.316406 544.472656 C 277.890625 539.585938 261.613281 534.710938 250.496094 529.820312 C 236.117188 523.578125 218.890625 523.441406 198.824219 529.414062 C 181.1875 534.835938 164.105469 544.066406 147.558594 557.085938 C 141.867188 562.234375 136.710938 567.121094 132.09375 571.726562 C 132.648438 572.28125 133.179688 572.949219 133.734375 573.765625 C 134.265625 574.308594 134.808594 574.851562 135.351562 575.394531 C 135.625 575.664062 136.03125 575.9375 136.574219 576.207031 C 139.019531 578.652344 141.597656 581.09375 144.300781 583.539062 C 144.855469 584.070312 145.65625 584.625 146.742188 585.15625 C 154.34375 591.945312 163.019531 597.363281 172.785156 601.4375 C 179.027344 603.878906 216.59375 603.609375 285.480469 600.621094 C 321.839844 598.992188 353.296875 597.78125 379.878906 596.96875 C 415.136719 595.882812 442.128906 595.746094 460.847656 596.558594 C 470.066406 596.558594 491.355469 597.648438 524.726562 599.808594 C 559.167969 601.164062 589.949219 600.351562 617.074219 597.363281 C 636.066406 595.203125 653.566406 592.082031 669.5625 588.007812 C 675.804688 586.378906 681.628906 584.625 687.058594 582.722656 C 725.035156 569.703125 752.828125 550.027344 770.460938 523.710938 C 771.277344 522.898438 771.683594 522.230469 771.683594 521.675781 Z M 200.859375 395.328125 L 187.433594 413.847656 C 188.519531 416.292969 189.195312 419.265625 189.46875 422.796875 C 189.511719 423.046875 189.570312 423.316406 189.671875 423.609375 C 192.023438 439.765625 185.847656 461.464844 171.15625 488.71875 C 162.75 504.457031 150.273438 518.566406 133.734375 531.042969 C 126.949219 535.648438 121.113281 539.179688 116.234375 541.621094 C 117.855469 548.683594 120.578125 555.324219 124.367188 561.554688 C 132.230469 550.976562 141.734375 541.757812 152.851562 533.882812 C 168.574219 523.304688 178.890625 513.679688 183.765625 505 C 195.429688 482.757812 201.128906 464.984375 200.859375 451.691406 C 199.398438 441.703125 199.058594 432.140625 199.839844 423 C 200.078125 420.160156 200.417969 417.378906 200.859375 414.664062 C 202.160156 408.53125 203.246094 402.828125 204.117188 397.566406 C 204.582031 395.179688 204.988281 392.871094 205.339844 390.65625 C 204.796875 390.925781 204.117188 391.332031 203.300781 391.875 L 200.859375 395.328125" fill-rule="evenodd"/></g><path fill="#A0B021" d="M 169.332031 425.851562 C 168.019531 424.472656 166.054688 423.179688 163.429688 421.980469 C 163.089844 421.824219 162.738281 421.6875 162.410156 421.574219 C 155.691406 419.550781 142.332031 424.425781 122.332031 436.226562 C 120.851562 437.128906 119.425781 438.011719 118.070312 438.871094 C 104.054688 447.042969 94.03125 451.316406 87.957031 451.691406 C 86.40625 451.839844 85.117188 451.703125 84.089844 451.285156 C 78.996094 449.121094 72.957031 444.710938 65.988281 438.058594 C 60.617188 433.046875 54.722656 426.734375 48.285156 419.132812 C 34.722656 402.589844 27.269531 393.902344 25.910156 393.097656 C 23.738281 392.011719 22.246094 391.46875 21.433594 391.46875 C 20.890625 391.742188 20.210938 391.605469 19.394531 391.0625 L 17.777344 393.902344 C 21.839844 401.777344 31.875 413.984375 47.878906 430.535156 C 54.519531 437.71875 60.414062 443.679688 65.582031 448.433594 C 69.710938 452.335938 73.363281 455.457031 76.566406 457.789062 C 79.109375 459.691406 81.351562 461.046875 83.273438 461.863281 C 91.148438 465.390625 103.882812 466.75 121.519531 465.933594 C 145.941406 464.578125 161.933594 456.714844 169.527344 442.335938 C 173.054688 435.816406 173.191406 430.535156 169.945312 426.460938 C 169.773438 426.269531 169.570312 426.066406 169.332031 425.851562" fill-rule="evenodd"/></svg>